<?xml version="1.0" encoding="utf-8"?>
<svg xmlns="http://www.w3.org/2000/svg" width="625" height="356" viewBox="0 0 625 356" style="background: rgb(238, 238, 238)"><g transform="matrix(0.44629546 0 0 0.44629207 1.94644 -0.492370) matrix(1 0 0 1 0 0)"><g><g><g transform="matrix(1 0 0 1 0 0)"><g><linearGradient y2="75.21" x2="700.4189" y1="658.8015" x1="700.4189" gradientUnits="userSpaceOnUse" id="SVGID_1_">
 <stop style="stop-color: rgb(210, 237, 225)" offset="0"></stop>
 <stop style="stop-color: rgb(135, 188, 190)" offset="0.1016"></stop>
 <stop style="stop-color: rgb(62, 140, 156)" offset="0.2064"></stop>
 <stop style="stop-color: rgb(45, 109, 128)" offset="0.2627"></stop>
 <stop style="stop-color: rgb(29, 79, 101)" offset="0.3287"></stop>
 <stop style="stop-color: rgb(17, 57, 81)" offset="0.399"></stop>
 <stop style="stop-color: rgb(8, 41, 66)" offset="0.4747"></stop>
 <stop style="stop-color: rgb(3, 31, 58)" offset="0.5597"></stop>
 <stop style="stop-color: rgb(1, 28, 55)" offset="0.6732"></stop>
 <stop style="stop-color: rgb(0, 0, 20)" offset="0.9899"></stop>
</linearGradient></g></g><g transform="matrix(0.9999999999999998 0 0 1 -8.881784197001252e-16 0) matrix(1 0 0 1 0 0)"><g><rect height="807.2" width="1415.9" fill="url(#SVGID_1_)" y="-5.2" x="-7.5" style="fill: url(&quot;#SVGID_1_&quot;); height: 807.2px; inline-size: 1415.9px; block-size: 807.2px; width: 1415.9px; x: -7.5px; y: -5.2px;"></rect></g></g><g transform="matrix(2.24067 0 0 2.24069 -4.36133 1.10325) matrix(0.446295 0 0 0.446292 1.94644 -0.492371) matrix(1 0 0 1 -1.77636e-15 0) matrix(1 0 0 1 0 0)"><g style="transform-origin: 457.25px 683.472px; transform: translate(-10px, 0px); animation: 4.16667s linear -1.375s infinite normal forwards running wander-h-d9222d49-de3c-4fa4-80b9-fc923185e2a3;"><path d="M904.8,805.8c0.5-2.8-8.5-8.4-15.8-14.6c-2.9-1.7-5.8-3.4-8.9-4.8c-5.4-2.3-11.2-2-16.8-2.7
 c-8.4,1.7-16.1,4.9-22.4,10.9c-1,0.9-1.9,1.3-2.8-0.2c-1.8-3-4.7-4.5-8.1-5.2c-1.4-0.3-3.2-0.8-2.7-2.7c1.2-4.5-0.2-8.9,0-13.3
 l0-0.1c-0.2-0.3-0.4-0.7-0.5-1c-1.3-3.5-2.1-7.2-3.5-10.7c-1.9-4.6-5-8.4-7.2-12.8c-6.2-6.2-13.3-10.9-22-13
 c-1.3-0.3-2.6-0.4-3.9-0.6c-0.3,0-0.5,0-0.8-0.1c-6.6-1.3-12.9,0.2-19.3,1.6c-7.6,5.4-7.8,5.4-10.2-2.9c-0.1-0.5-0.3-1-0.4-1.5
 c-3.8-7.3-8.2-14-15.6-18.1c-9-5-18.3-6.1-28-2.7c-4.4,1.5-8.8,2.8-11.9,6.7c-1.5,1.7-3,3.3-4.4,5.1c-1.5,2-3,2.9-5.7,1.8
 c-3-1.3-6.4-0.9-9.2,0.6c-2.1,1.2-2.8,0.5-4-1.1c-3.5-4.9-8.1-7.8-14.5-6.6c-1.6,0.3-2.6-0.1-3.6-1.6c-4.3-6.9-10.3-10.5-18.8-9.7
 c-4.2,0.4-7.9,1.8-11.3,4.2c-1.8,1.2-2.6,0.9-3.6-0.9c-2-4-4.3-7.8-7.8-10.8c-1.7-1.5-4.3-2-5.4-4.3c-3-1-6.1-1.9-9.1-2.9
 c-1.9,0.8-3.7-0.7-5.6-0.4c-1.8,0.3-2-1.1-2-2.5c-0.5-1.8-1.1-3.7-1.6-5.5c-1.3-1-1.4-2.3-1.3-3.8c-0.7-0.3-0.8-0.9-0.6-1.5
 c-0.2-0.4-0.4-0.7-0.6-1.1c-2.1-1.4-3.2-3.3-3.3-5.8c-0.8-1-1.6-2.1-2.4-3.1c-0.6,0-0.7-0.5-0.7-1c-0.2,0-0.4-0.1-0.6-0.3
 c-0.2-0.3-0.5-0.6-0.7-0.9c-0.2,0-0.4-0.1-0.6-0.3c-0.5,0-0.6-0.4-0.7-0.8c-0.9-0.3-2-0.3-2.4-1.5l-0.2,0.1c0,0-0.1-0.2-0.1-0.2
 c-0.9-0.2-1.9-0.3-2.2-1.4c-7.4-2.3-14.8-4.3-22.7-3.5c-1.1,1-2.5,1.1-3.9,1.1c-0.6-0.6-1.2-1.4-1.7-2.6
 c-4.3-9.5-13.8-13.8-25.5-11.7c-2.7,0.5-3.7-0.1-4.1-2.5c-4.5-7.4-10.4-13.4-19.2-15.2c-10.1-2.1-19.6-1.2-27.2,7
 c-3.2,3.5-9.3,3.2-11.8-0.5c-2.7-4-10.3-7.3-15-5.5c-2.1,0.8-3.2,0.3-4-1.7c-0.6-1.3-1.4-2.5-2.1-3.8c-7.2-7.8-15.9-12.4-26.8-12
 c-8.3,0.3-15.6,2.9-21.5,9.2c-3.4,3.6-3.5,3.5-6.2-0.5c-4.3-6.5-13.1-9-20.7-5.8c-4.4,1.9-4.4,1.9-4.6-2.7c-0.2-3.2-0.6-6.4-0.9-9.6
 c-0.3-0.6-0.7-1.1-0.9-1.7c-9.3-23.9-29.3-40.4-57.5-38.7c-12.6,0.7-23.7,5.7-32.7,13.8c-7.6,6.8-13.6,15.5-16.7,25.6
 c-0.5,3.3-2,6.5-1.6,10c0.1,0.5-0.1,1.1-0.4,1.5c-1,1.5-9,2.2-10.1,0.7c-3.8-5.5-9.2-8.8-15.1-11.5c-6.6-2.3-13.3-1.6-20-0.3
 c-1.8,1.9-4.4,2.8-6.7,3.6c-2.3,0.8-1.8-2.2-2.6-3.6c-5-8-12.2-9.9-20.8-7.4c-1.9,0.5-2.5-0.5-3-1.7c-1.7-4.1-4.5-7.3-7.5-10.5
 c-8.4-9-19.2-12.1-30.6-9.5c-11.8,2.7-21,9.9-24.8,22.4c-0.1,0.5-0.3,1-1.4,0.9c-6.8-11.7-17.5-16.4-31-15
 c-14,1.5-21.1,11.2-26.3,23.2c-0.6-0.8-0.9-1.2-1.2-1.6c-4.1-6.2-9.2-10.5-17.2-9.7c-2.1,0.2-2.5-1.2-3.2-2.7
 c-4.3-10.2-11.5-17-22.1-20.9c-6.8-2.5-11.9-2.7-18.9-1.7c0,15-1.1,234.5-1.1,234.5S904.6,807,904.8,805.8z" fill="#F9FCEF" style="fill: rgb(249, 252, 239);"></path></g></g><g transform="matrix(0.9999999999999998 0 0 1 -8.881784197001252e-16 0) matrix(1 0 0 1 0 0)"><g style="transform-origin: 921.209px 693.464px; transform: translate(-10px, 0px); animation: 4.16667s linear 0s infinite normal forwards running wander-h-d9222d49-de3c-4fa4-80b9-fc923185e2a3;"><path d="M1401.6,589.8c-1-0.4-1.8-1.1-2.4-2.1c0,0,0,0,0,0c-0.3-0.3-0.6-0.5-0.9-0.8c-0.2-0.2-0.5-0.3-0.7-0.5
 c-0.6-0.2-1.3-0.3-1.6-1c-1.5-0.4-3.1-0.8-4-2.2c-7.4-2.8-15.1-2.9-22.8-2.5c-0.6,1-1.5,0.8-2.4,0.8c0,0-0.2,0.1-0.2,0.1l-0.2-0.1
 c-0.7,1.1-1.7,0.8-2.7,0.8c-0.2,0.4-0.3,0.7-0.8,0.6c-0.2,0.1-0.4,0.2-0.7,0.1c-0.3,0.2-0.6,0.5-0.9,0.7c-0.2,0.1-0.4,0.2-0.7,0.1
 c-0.2,0.4-0.3,0.9-1,0.8c-1.1,0.8-2.1,1.6-3.2,2.4c-0.7,2.4-2.3,4-4.7,4.8c-0.3,0.3-0.6,0.6-0.8,0.9c0,0.7-0.3,1.2-1,1.3
 c-0.3,1.4-0.8,2.7-2.3,3.3c-1,1.6-2,3.3-3,4.9c-0.3,1.3-0.9,2.6-2.5,1.9c-1.8-0.8-3.9,0.2-5.5-1.1c-3.2,0.1-6.4,0.3-9.5,0.4
 c-1.7,1.9-4.3,1.7-6.3,2.7c-4.1,2-7.3,5.1-10.3,8.4c-1.4,1.5-2.3,1.6-3.7,0c-2.7-3.1-5.9-5.5-9.9-7c-8-3-14.7-1.1-20.7,4.5
 c-1.3,1.2-2.4,1.4-3.9,0.6c-5.8-2.9-11-1.2-15.7,2.6c-1.6,1.3-2.4,1.7-4.1,0.1c-2.3-2.2-5.5-3.4-8.7-3c-2.8,0.4-4.1-0.8-5-3.2
 c-0.8-2.1-1.9-4-2.9-6c-2-4.5-5.9-7-9.8-9.5c-8.5-5.7-17.8-7.1-27.8-4.6c-8.3,2.1-14.3,7.4-19.8,13.4c-0.3,0.4-0.5,0.9-0.8,1.3
 c-4.4,7.4-4.6,7.4-10.6,0.1c-5.8-2.9-11.5-6.1-18.2-6.5c-0.3,0-0.5-0.1-0.8-0.1c-1.3-0.2-2.6-0.4-3.9-0.5c-8.9-0.3-17,2.4-24.7,6.8
 c-3.2,3.7-7.3,6.5-10.3,10.5c-2.3,3-4,6.4-6.2,9.4c-0.3,0.3-0.5,0.5-0.8,0.8l0,0.1c-1,4.3-3.5,8.2-3.5,12.9c0,2-1.8,2-3.3,1.9
 c-3.4-0.2-6.6,0.4-9.1,2.9c-1.3,1.2-2.1,0.6-2.8-0.5c-4.5-7.5-11.1-12.5-18.8-16.3c-5.6-0.7-11.1-2.6-16.9-1.8
 c-3.4,0.5-6.6,1.4-9.8,2.3c-8.7,4.1-15.6,10.2-20.6,18.4c-0.9,2.6-2.6,4.8-2.8,7.7c-0.1,1.2-1,1.9-2.6,1.4c-5-1.6-9.1-1.8-12.6-0.4
 c-6.7,0-13.1,1-19.3,4.1c-10,5.1-16.4,12.7-19.5,23.3c-0.5,1.6-0.7,3.1-2.8,3.1c-8,0.1-12.6,5-16,11.7c-0.2,0.5-0.5,0.9-1,1.7
 c-6.6-11.3-14.7-20.1-28.9-20c-13.6,0.1-23.6,6.1-29,18.5c-1.1,0.2-1.3-0.3-1.5-0.7c-5.2-11.9-15.1-18-27.2-19.3
 c-11.6-1.3-21.9,3.1-29.3,13c-2.6,3.5-5.1,7-6.3,11.3c-0.3,1.3-0.9,2.3-2.8,2c-8.9-1.4-15.8,1.3-19.8,9.8c-0.6,1.4,0.2,4.4-2.1,3.9
 c-2.3-0.5-5-1.1-7-2.8c-6.8-0.5-13.5-0.4-19.9,2.6c-5.5,3.4-10.5,7.2-13.6,13.2c-0.9,1.6-8.9,1.8-10.1,0.4c-0.3-0.4-0.5-1-0.5-1.4
 c0-3.5-1.8-6.5-2.7-9.8c-4.3-9.7-11.2-17.6-19.6-23.5c-9.9-7-21.5-10.7-34.1-9.9c-28.2,1.7-46.1,20.3-52.6,45.2
 c-0.2,0.6-0.4,1.2-0.7,1.8c0.1,3.2,0.1,6.4,0.3,9.6c0.3,4.6,0.4,4.6-4.3,3.3c-7.8-2.3-16.3,1.2-19.8,8.2c-2.2,4.3-2.3,4.4-6.1,1.2
 c-6.5-5.5-14.1-7.3-22.4-6.6c-10.8,0.9-18.9,6.5-25.2,15.1c-0.6,1.3-1.3,2.6-1.7,4c-0.6,2-1.7,2.7-3.8,2.1c-4.9-1.2-12,2.9-14.3,7.2
 c-2.1,4-8.1,5-11.7,1.9c-8.5-7.2-18.1-7-27.9-3.7c-8.5,2.8-13.6,9.4-17.3,17.3c-0.2,2.4-1.1,3.1-3.8,3c-12-0.8-30,12.8-30,12.8
 c2.5-1.5,964.5,0,964.5,0v-201C1408.8,598.9,1405.3,594.3,1401.6,589.8z" fill="#FCFEEE" style="fill: rgb(252, 254, 238);"></path></g></g><g transform="matrix(2.24067 0 0 2.24069 -4.36133 1.10325) matrix(0.446295 0 0 0.446292 1.94644 -0.492371) matrix(1 0 0 1 -8.88178e-16 0) matrix(1 0 0 1 0 0)"><g><path d="M1391.7,630.7c-11.8-3.5-23.9-5-36.2-4.3c-2.7,0.2-5.5,0-8.3,0l-5.2,0.9c-20.6,1.4-38,10.5-54.4,22.1
 c-11,7.8-23.3,11.4-36.9,12.1c-12.9,0.7-24.7-3.3-36.6-7c-16-5-31.8-10.5-48.6-11.9c-32-2.6-62.1,2.6-88.8,21.8
 c-8.1,5.8-15.7,12.5-24.8,16.8c-7.5,4.9-15.7,7.6-24.5,8.6c-10.6,1.2-21.4,0.9-31.8,4.1c-1.4,0.4-2.8,0.5-4,1.5
 c-3.7,0.6-7.2-0.7-10.9-0.9c-11.9-0.8-23.4,1.5-34.5,5.5c-14,5.1-28.6,7.9-43,11.3c-4.1,1-8.1,2-12.2,3.1
 c-10.7,3.5-20.2,9.6-30.2,14.5c-12.9,8.3-26.7,14.3-42.2,14.8c-8.6,0.3-16.8,2.2-25,4.8c0,0,0,0,0,0c-1.6,0-3.1,0.4-4.6,0.7
 c-8.5,1.8-16.7,5-25.4,5.8c-11,4-22.4,5.8-34.1,6.5c-17.7,1-34.2-4.3-50.9-8.7c-2.8-0.3-5.7-0.7-8.5-1c-1.4-0.3-2.8-0.6-4.2-1.1
 c-13.6-4.9-27.4-8.1-42-7.7c-4.9,0.1-9.4-1.6-14-3.3c-10.1-3.8-20.2-7.5-31.2-7.1c-6.9,0.2-13.9-0.3-20.8,0.8
 c-8.9,0.6-17.1-1.5-24.8-5.9c-8.2-4.7-16.8-8.5-25.5-12.3c-7.8-2.4-15.7-4.8-23.5-7.4c-1.8-0.6-3.9-0.7-5-2.7
 c-1.3-0.2-2.6-0.3-3.9-0.5c-7.5-1.4-14.4-4.5-21.8-6.2c-1-0.9-2.2-1.3-3.5-1.3c-0.1,0.5-0.2,1.2-0.8,1.1c-1.1-0.1-0.7-1.2-0.8-1.9
 c-15.2-5.5-29.2-13.4-42.2-22.9c-0.7-0.4-1.3-0.8-1.9-1.3c-19.9-16.4-42.4-27-68.2-29.6c-11.8-1.2-23.5-1-35.3,0.3
 c-14.8,1.7-29,6-43,10.9c-8.4,2.9-16.8,6.5-25.5,7.4c-14.8,1.6-28.9-1.3-41.5-10.3c-9.1-6.6-18.2-13.3-28.8-17.6
 c-10-4.1-20.5-6.6-31.3-7.3c-20.9-1.2-40.8,2.6-59.8,11.3c-2.2,1-4,1.2-6.2-0.2c-11.3-6.9-23.8-9.6-36.8-10.4
 c-0.3,0.3-0.6,0.3-0.8,0c-10.4,0.1-20.2,2.6-29.7,6.6c0,0-0.1,0-0.1,0c-2.3,1-4.6,2.5-7.4,2c0,6.1,0,12.1,0,18.2
 c2.8-0.1,1,152.2,1,152.2h1419l-1-150.7c0-6.1,0-12.1,0-18.2C1403.2,634.8,1397.5,632.4,1391.7,630.7z" fill="#3E8C9C" style="fill: rgb(62, 140, 156);"></path></g></g><g transform="matrix(2.24067 0 0 2.24069 -4.36133 1.10325) matrix(0.446295 0 0 0.446292 1.94644 -0.492371) matrix(1 0 0 1 -8.88178e-16 0) matrix(1 0 0 1 0 0)"><g><path d="M1408.3,654.2c-0.5-0.2-1-0.2-1.5-0.5c-15.4-8.9-32-9.8-48.9-6.4c-11.8,2.4-22.6,7.8-33,13.7
 c-12,6.7-24.1,12.8-37.5,16.4c-11.6,3.1-23.3,3.9-35.1,3.8c-0.8,1-1.6,1-2.4,0c-8.9-0.3-17.9-0.3-26.6,1.9
 c-10.2,2.6-20.2,5.8-30.1,9.2c-7.5,2.6-15.1,5.4-23.3,5.3c-1.1,1.7-2.8,1.5-4.5,1.7c-5.8,0.8-11.5,1.7-17.3,2.7
 c-1,0.2-1.9,0.8-2.8,1.3c-6.6,2.2-13.2,4.5-19.8,6.7c-11.1,3.7-21.8,2.6-32-3c-2.7-1.5-6.3-1-8.4-3.8c-1.6,0.1-3.1,0.1-4.7-0.4
 c-4.8-1.4-9.6-2.9-14.6-3.2c-9.2-0.5-18.3-1.3-27.4,1.4c-7,2.1-13.3,5.4-19.8,8.5c-5.7,5.1-11.5,10-18,14c-5.9,3.7-12.3,2-18.3,0.9
 c-16.8-3.1-32.4-0.3-46.5,9.5c-9.2,6.4-19.5,10.2-30,13.8c-7.3,2.5-14.5,5.4-21.9,7.5c-5,1.2-10.2,1.3-15.3,1
 c-13.4-0.7-26.4,2.5-39.5,4.3c-7.3,1-14.4,3-21.8,2.9c-2.8,1.5-6,0.2-8.8,1.5c-9.8,2.1-19.7,4.2-29.5,6.4c-18.3,4-36.6,6.9-55.4,5.4
 c-9.6-0.8-19.2-2.6-28.7-4.7c-12-2.6-24-5.2-36-7.8c-15.8-0.7-30.4-5.7-45.3-10.5c-4.5-1.5-9.9-1.9-15-1.2c-0.2,0.3-0.3,0.8-0.6,0.9
 c-0.7,0.2-0.8-0.4-0.9-0.9c-5.6-0.8-11.1-0.3-16.7,0.4c-0.4,0.7-1.2,0.8-1.9,0.9c0.7-0.1,1.5-0.2,1.9-0.9
 c-15.7-1.5-29.9-8-44.2-13.8c-8.9-3.6-17.4-8.1-25.6-13.1c-12.6-7.7-26.2-10.4-40.8-7.7c-2.9,0.8-5.8,1.6-8.7,2.4
 c-2.1,2.4-5.3,2.6-7.7,4.3c-2.2,1.5-4.7,2.4-7,3.6c-9,4.5-10.9,4-18.8-2.2c-16.4-13-34.8-18.4-55.6-14.1c-8.3,1.7-16.6,3.5-25,4.9
 c-5.9,0.9-11.8-0.1-17.2-2.9c-13-6.7-25.2-15.3-39.8-18.5c-8.9,0.6-17.5-1.4-26-3.3c-10.7-2.4-20.5-7.2-30.9-10.6
 c-0.4-0.1-0.9-0.1-1.3-0.2c-0.3-0.2-0.7-0.4-1-0.7c-1.5-0.6-2.9-1.1-4.4-1.7c-16.9-6.7-34.3-6.6-52-3.9c-13.6,2.1-26.9,5.5-41,4.3
 c-14.5-1.2-27.9-4.7-40.5-11.7c-17.9-10-35.4-20.9-56.7-22.3c-9.9-0.7-19.3,0.6-28.5,4c-2.7,1-5.1,2.7-8.1,2.8
 c0,9.3-0.1,151.6-0.1,151.6l1420.8,1.5C1410,805.7,1408.3,662.9,1408.3,654.2z" fill="#083954" style="fill: rgb(8, 57, 84);"></path></g></g><g transform="matrix(0.9999999999999998 0 0 1 -8.881784197001252e-16 0) matrix(1 0 0 1 0 0)"><g><path d="M1408.3,711.4c0,30.2,0,60.4,0.1,90.6c0,2.9-0.6,3.7-3.6,3.7c-125.1-0.1-250.2-0.1-375.2-0.1
 c-345.4,0-690.8,0-1036.3,0.1c-3.4,0-4-0.8-4-4.1c0.1-31.9,0.1-63.9,0.1-95.8c2-2.5,2.5-5.4,3.2-8.4c1.6-6.8,3.2-13.5,4.8-20.3
 c0.2-0.8,0.4-1.7,1.3-1.8c0.8-0.1,0.9,0.6,1.1,1.3c1.9,7.9,3.7,15.7,5.7,23.6c1.2,4.9,1.7,10.1,4.3,14.6c0.8-0.3,1-1,1.1-1.6
 c2.1-10.8,5.3-21.4,8-32.1c0.2-0.8,0.4-1.7,1.3-1.8c0.8-0.1,0.9,0.7,1.1,1.4c2.4,9.3,4.8,18.5,7.3,27.8c0.5,1.9,0.4,4.1,2.7,6
 c2-12.2,5.6-23.4,8.3-35.9c0.8,1.6,1.2,2,1.2,2.5c0.9,4.9,3.3,9.4,3.4,14.5c0,0.8,0.3,1.6,1.2,1.9c0.6,0.2,1.1-0.3,1-0.9
 c-0.4-2.9,1.4-5.2,1.9-7.9c0.8-5,2.3-10,3.5-14.9c2,4.5,3.2,8.9,4.4,13.2c1.1,4,2,8.1,3.1,12.1c0.2,0.6,0,1.5,0.9,1.6
 c1,0.1,1.3-0.7,1.5-1.5c1.4-5.3,2.8-10.6,4-15.9c0.4-1.9,1.3-3.4,2.9-5.2c3.6,14.4,7.1,28.3,10.6,42.6c3.5-10.7,6-21.2,9-31.6
 c4.5,11.6,6.3,23.7,9.9,36.6c4-9.7,4.9-19.2,8-28.1c1.7,1,1.7,2.6,2.1,3.9c2,7.1,4.1,14.2,5,21.6c0.2,2,1,3.1,3,3.6
 c3.8-12.7,5.6-25.8,9.9-39.1c3.5,8,4.8,15.7,6.2,23.4c0.5,2.5,0.4,5.2,2.7,6.9c2.7-7.4,4.3-14.9,6-22.5c0.1-0.7,0.3-1.5,1-1.5
 c1.3-0.1,1.2,1.1,1.4,2c1.9,7.8,3.7,15.5,5.6,23.3c0.6,2.3,1.3,4.7,1.9,7c4.6-13.3,6.7-26.9,9.9-40.3c0.4,0,0.7,0.1,1.1,0.1
 c3.2,13.7,6.3,27.3,9.5,41c0.4,0,0.7,0,1.1-0.1c2.8-11.6,5.7-23.2,8.5-34.8c0.3,0,0.7,0,1-0.1c1.2,11.8,4.9,23.2,7.4,35.4
 c1.8-5.7,3.4-10.9,5.4-17.4c2.4,8.3,4.5,15.6,6.9,23.6c2.4-9.5,4.4-18.3,6.8-27c0.6-2.2-0.6-6.1,1.7-6.3c2.6-0.2,1.4,3.8,2.6,5.7
 c0.4,0.7,0.7,1.4,0.9,2.1c2,8.7,3.9,17.5,5.9,26.3c0.3,0,0.6,0.1,0.8,0.1c2.6-11,5.3-22.1,7.9-33.2c1.6,0.6,1.3,1.7,1.8,2.4
 c0.5,0.9,0,2.2,1.1,2.9c2,7.5,2.3,15.4,5.4,23c1.9-2.3,1.1-5,2.9-7.2c1.3,3.7,2.5,6.9,3.6,10.1c0.3,0.9-0.3,2.4,1.3,2.4
 c1.4,0,1.3-1.5,1.6-2.4c1.5-5.7,2.9-11.5,4.3-17.2c0.9-3.6,1.9-7.1,2.9-10.7c0.3,0,0.5,0,0.8,0.1c2.3,8.1,4.6,16.2,7,24.3
 c3.2-8,4.1-16.5,7.8-25c3.3,9.8,5.4,19.1,7.2,28.4c0.3,0,0.7,0,1,0c1.8-7.2,3.6-14.3,5.5-21.8c1.5,1.1,1.7,2.2,2,3.3
 c1.8,6.7,3.7,13.4,5.4,20.2c0.3,1,0.3,2.2,1.7,2.2c0.9,0,1.2-0.9,1.5-1.6c0.7-1.9,0-5.1,2.2-5.3c1.5-0.1,1,3.3,1.8,5
 c0.3,0.6,0.5,1.3,1.3,1.2c0.8,0,1-0.7,1.2-1.4c0.2-0.9,0.4-1.8,0.7-2.7c1.5-4.2,1.8-8.8,4.2-13.5c2.3,7,4.4,13.4,6.7,20.6
 c2.7-5.3,2-10.6,4.7-15.7c1.8,6.1,3.5,11.5,5.2,17.1c1.6-1.8,1.4-3.8,2-5.5c0.4-1.2,0.3-3.1,1.7-3.1c1.4,0,1.5,2,1.8,3.1
 c1.2,3.9,2.2,7.9,3.6,12.8c1.3-5,2.4-8.9,3.5-12.8c0.2-0.7,0.4-1.7,1.4-1.7c1,0,1.1,1,1.3,1.7c0.4,1.9,0.6,3.9,1.1,5.8
 c0.8,2.8,1.2,5.9,3.1,8.3c2.6-2.2,2.3-5.6,3.1-8.5c1.3-4.8,2.5-9.7,3.9-15.2c3.6,7.2,3.3,14.5,5.7,21.1c0.3,1,0.3,2.4,1.5,2.4
 c1.2,0,1.3-1.4,1.6-2.4c1.8-6.7,3.6-13.4,4.8-20.3c0.1-0.9,0-2.1,1.1-2.3c1.2-0.2,1.2,1.1,1.3,2c1,7.1,4.3,13.7,4.8,20.9
 c0.1,1,0.5,2.3,1.8,2.2c1-0.1,1.1-1.2,1.3-2.2c0.9-4.3,1.9-8.5,3.1-13.9c2.3,7.9,4.3,14.7,6.2,21.5c2.2-7.4,4.9-14.4,6.9-22.2
 c2,7.8,3.9,15.1,6,22.9c4.9-7,3.5-15.7,7.9-23.1c1.8,7.4,3.4,14.1,5.1,21.1c2.2-2.3,1.4-5,2.8-7.8c0.9,3,1.6,5.3,2.2,7.7
 c0.2,0.7,0.1,1.7,1.2,1.8c1.1,0.1,1.1-0.9,1.3-1.6c0.6-2.4,0.9-5,1.9-7.2c1.4-3,0.6-6.5,2.8-10.3c1.4,8.3,3.5,15.4,6,22.4
 c2.2-3.7,2.2-8.3,4.6-12.5c1.5,4.5,2.4,8.5,4.7,12.8c1.5-3.7,2-7.2,4-10.5c0.6,1.9,1,3.2,1.4,4.6c0.5,1.6,0.2,4.1,2.2,4.2
 c2.4,0.1,1.3-2.7,2.1-4c0.1-0.2,0.4-0.2,0.9-0.4c0.4,1.2,0.8,2.5,1.1,3.7c0.2,0.7-0.2,1.8,0.9,1.9c1.2,0,1.3-1,1.5-2
 c0.5-2.4,0.7-4.9,2.3-7.8c1.4,4.6,2.6,8.4,3.9,12.8c2.1-4.3,2.4-8.4,3.3-12.3c0.2-0.9-0.5-2.5,1-2.5c1.3,0,1.1,1.5,1.3,2.5
 c0.7,3.5,1,7.1,3.1,10.6c1.5-2.5,1-5,2.5-7c1.9,3.7,1.7,7.9,4.6,11.5c3.3-7.9,4.1-16,6.6-24.4c2.5,8.1,4.3,15.6,5.9,23.7
 c2.3-3.8,1.7-7.6,3-11c2.5,4.2,1.6,9.6,5,14c1.2-4.4,2.2-8.2,3.2-12.1c0.2-0.8,0.1-1.7,1.2-1.8c1,0,1.1,0.9,1.3,1.7
 c1.1,4.5,2.1,9,4.3,13.2c2.6-4,2.6-8.9,4.5-14.1c1.4,4.4,2.4,7.7,3.4,11c2.4-1.2,1.5-4.2,3.3-5.8c1.1,3,2.2,5.8,3.7,9.7
 c1.6-6.4,3-11.6,4.6-17.9c1.6,6.5,2.9,11.8,4.3,17.1c0.2,0.9,0.2,2.4,1.7,2.3c1.4-0.1,1.4-1.6,1.5-2.5c0.5-2.8,1.4-5.4,2.8-8.5
 c1.6,3.7,1,7.7,3.5,11c0.9-2.7,1.8-5,2.7-7.7c2.2,3.1,1.4,6.9,4,9.2c2.9-3.8,2.1-8.7,4.5-12.9c1,2.3,1.8,4.2,2.7,6.1
 c0.4,1.8,0.7,3.6,1.2,5.3c0.2,0.7,0.6,1.6,1.6,1.4c0.7-0.2,0.9-0.8,1.1-1.5c0.3-1.5-0.4-3.2,0.9-4.5c0.3,0,0.5,0.1,0.8,0.1l0,0
 c0.1,2.3,1.7,4,2.4,6.6c1-2.4,1.8-4,1.3-5.9c1.2-1.4,1-3.1,1-4.7c0.5,0,1,0,1.5,0c0.5,1.8,1.1,3.7,1.6,5.5c0.5,2.1,1,4.1,2.5,6.6
 c0.7-2.3,1.5-3.9,1.3-5.8c0.2-0.6,0.2-1.6,0.6-1.7c1.3-0.4,0.9,0.8,1,1.4c0.1,0.9,0.1,1.8,0.2,2.7c0.2,0.4,0.3,1.1,0.5,1.2
 c0.8,0.2,0.8-0.6,1-1.1c1.8-2.6,1.2-5.9,2.4-8.7c0.7,0,1.5,0,2.2,0c1.2,4.5,2.3,8.9,3.5,13.4c-0.1,0.6-0.4,1.6,0.2,1.7
 c1,0.2,1-0.9,1.1-1.7c1.1-3.7,2.1-7.4,3.2-11.1c0.6-0.4,0.8-0.9,0.8-1.6c1.2,1.3,1,3.2,1.8,4.7c-0.2,1.2,0.4,1.9,1.3,2.5
 c-0.2,1.9,0.4,3.7,1,5.4c0,0.7-0.4,1.9,0.7,1.9c1.1,0,0.7-1.1,0.8-1.8c0.8-3.4,2.4-6.7,2.4-10.3c0.5,0,1,0.1,1.5,0.1
 c0.8,3.4,1.6,6.8,2.5,10.2c0.1,0.6,0.2,1.1,0.3,1.7c0.2-0.5,0.4-1.1,0.5-1.6c3-4.9,2.3-10.9,5.1-16c1.3,6.2,2.6,12.2,4,18.6
 c1.5-2.5,1.8-5.2,3.6-7.3c1.4,3.1,0.7,6.6,3.6,8.8c2.4-3.7,2.8-7.8,4-12c2.8,3.9,2.1,8.5,4.1,12.4c2.2-2.2,1.4-5.3,3.6-7
 c0.7,1.9,1.3,3.6,2.1,5.6c1.4-2.6,1.2-5.1,2.1-8c1.5,2.4,0.3,5.4,3,6.7c0.5-1.5,1-2.9,1.5-4.4c1.1,3.4,2.2,6.7,3.4,10.6
 c2-4,2.4-7.8,3.2-12.3c2.5,3.6,2.7,7,4,9.9c0.1,1,0,2.2,1.5,2.3c1.1,0.1,1.6-0.5,1.6-1.6c0.2-4.6,2.2-8.6,3.6-13.3
 c3.2,4.2,1.7,9.3,4.3,13.3c1.5-1.2,1.2-3.2,2.9-4.1c0.8,1.3,0.1,4.1,2.3,3.8c2.3-0.3,0.5-3.3,1.9-4.6c2.2,0.2,0.3,7.7,5.2,2.9
 c0.1-0.1,0.8,0.2,0.9,0.5c1.4,3.2,2.1,0.6,2.5-0.4c0.6-1.5,1.1-2.2,2.2-0.5c0.6,1,0.1,3.2,1.9,2.8c1.4-0.3,0.6-2.3,0.9-3.5
 c0.1-0.6,0.3-1,0.8-1c2,0.9,0.6,3.6,2.6,4.6c1-1.3,1.5-4.2,3.7-1.1c3-2.4,3.9,1.4,6,1.9c0.6,0.2,1.3-0.3,1.9-0.4
 c0.2,4.6,0.3,4.7,4,2.4c1.3-2.4,2.5-1.4,3.6,0.3c0.8-1.5,0.7-3.2,2.6-3.4c0.3,1.2-0.5,2.9,0.9,3.4c1.3,0.5,1.9-1.5,3.1-1.8
 c0.2,3.6,2.9,0.6,4.3,1.6c1.2,1,1.2-0.8,1.6-1.4c0.6-0.9,0.6-2.2,2.1-2.8c0.8,3.4,2,6,5.1,1.6c0.2-0.2,1.6-0.1,1.8,0.2
 c1.3,2.6,3.8,1.4,5.6,2.1c4.2,1.5,7.2,0.3,9.7-2.6c1.5,0.5-0.6,3.5,2.3,2.6c0.6-0.3,1.1-0.5,1.7-0.8c0.5,0.6,0.3,2,1.7,1.8
 c2.1-0.3,0.9-2.8,2.4-3.9c1.1,1,0.5,7.2,4,1.6c0.5-0.9,0.9,0.5,1.1,0.9c0.7,1,1.1,1.4,1.9,0c0.8-1.5,1.3-0.8,1.6,0.4
 c0.2,0.8,0.5,1.7,1.5,1.3c0.5-0.2,0.9-0.9,1.3-1.4c0.7-1-0.2-2.6,1.2-3.4c1.2,1.1,0.3,2.7,1,3.6c5.2,0.7,7.4-2,7.5-6.9
 c2.1,1.5,1.4,3.5,2.4,4.7c0.7,0.9,0.9,2.5,2.2,2.6c1.5,0.2,1.2-1.8,2.3-2.4c0.8-0.5,0.1-2.5,1.6-2.3c1.4,0.2,1.1,1.9,1.4,3
 c0.1,0.3,0.3,0.6,0.6,1c1.8-1.1,2.3-2.8,2.9-4.6c0.8,1.5,1.6,2.8,2.5,4.3c1.2-2.6,1.1-5.9,4.1-7.3c0.6,1.8-0.4,4.4,1.9,5.2
 c2.1,0.8,2.7-1.5,3.6-3.3c1,1.9,1.7,3.4,2.7,5.4c1.1-2.6,1.9-4.6,2.9-7c0,2.8,1.1,4.7,2.6,6.5c2.5-3.6,1.3-8.1,4.2-12.2
 c0.9,2.8,1.6,4.8,2,6.8c0.3,1.2,0.3,2.5,1.8,2.7c2.1,0.3,1.2-1.6,1.7-2.5c0.3-0.5,0.4-1.3,0.5-1.9c1.8,0.2,1.4-1.8,2.5-2.3
 c0.4,1.8,0.6,3.6,1.1,5.4c0.3,0.9,0.6,2.3,1.9,2.1c1.3-0.2,0.6-1.5,0.9-2.3c0.5-1.1,0.8-3.5,1.9-2.8c3.9,2.3,3.1-0.9,3.6-2.7
 c0.4-1.4,0.9-2.7,1.9-3.7c2.8,2.1,1.3,5.7,2.9,8.4c2.9-3.8,2.5-8.4,4.7-13.4c-0.2,3.4,0.8,5.4,1.5,7.5c0.6,1.7,0.2,4.3,2.5,4.3
 c2.2,0,1.9-2.7,2.6-4.3c0.1-0.2,0.4-0.2,0.7-0.4c1.3,1.5,0.7,4.1,2.6,5.4c1.3-1.6,1.7-3.4,2.3-5.1c1.1,1.3-0.3,3.3,1.7,4.3
 c1.7-3.5,1.9-7.6,4.2-11c1.9,3.2,1.7,6.9,4,9.6c1.9-1.6,0.9-4.6,3.2-6.5c-0.3,3.1,0.8,5.2,2.6,7.5c1.6-6.3,4-12,4.9-18.1
 c1.5,6.6,2.9,13.1,5.3,19.8c2.4-4.8,1.8-10.3,5.7-14.3c0.4,1.4,0.7,2.4,1,3.4c0.6,1.8,0.2,5,2.2,5c2.6,0,1.6-3.3,2.3-5.1
 c0.1-0.2,0.4-0.2,0.6-0.3c1,0.8,0.4,1.9,0.7,2.9c0.1,0.7,0.2,1.5,1,1.5c1,0.1,1.1-0.9,1.3-1.6c0.6-3.4,0.9-6.8,1.9-10
 c0.6-1.9-0.6-4.7,2.1-5.8c1.1,6.7,1.2,13.7,5.3,20c2-3.1,1.9-6.6,4-10.4c0.2,3.3,0.8,5.4,1.8,7.3c0.3,0.5,0.1,1.4,1,1.5
 c1,0.1,1.4-0.8,1.6-1.5c0.3-1.1,0.5-2.3,0.7-3.4c0.6-3.1,1.3-6.2,2-9.3c1.6,3.6,2.1,7.2,4.7,11c0.8-4,1.5-7.1,2.1-10.3
 c0.2-0.9,0.1-2.1,1.3-2.1c0.9,0,0.9,1.1,1.1,1.8c0.8,2.8,1.6,5.5,2.4,8.3c0.2,0.8,0.1,1.7,1.2,1.7c1,0,1.1-0.9,1.4-1.6
 c0.7-1.6,1.5-3.2,2.5-5.1c0.5,1.6,0.7,2.7,1.2,3.7c0.4,0.9-0.6,2.8,1.3,2.7c1.2-0.1,1.8-1.4,2-2.7c0.2-1.3,0.4-3,2-3
 c1.5,0,1.7,1.7,2,3c0.1,0.9-0.1,2.1,1.2,2.1c1.2,0,1-1.3,1.3-2.1c1.1-3,2.8-5.7,3.7-9c1.1,2.4,1.8,4.9,2.6,7.3
 c0.3,1,0.6,2.3,1.9,2.2c1.2-0.1,1-1.3,1.1-2.2c0.1-0.7-0.1-1.8,0.9-1.9c0.9-0.2,1.2,0.8,1.7,1.4c0.5,0.7,0.2,1.8,1.5,2.3
 c1.4-5.5,2.9-10.8,4.3-16.2c2.4,5.2,2.9,10.6,5.4,15.6c2.4-2.6,1.3-6.3,3.7-9c0.4,0.6,0.6,0.9,0.8,1.3c0.7,1.6,0.3,4.4,2.3,4.5
 c1.7,0.1,0.5-3,2.1-4.2c0.4-0.3,0.3-1.5,0.4-2.3c0.6-3.1,1.3-6.2,2-9.3c1.8,4.3,2.3,8.7,4.3,13.1c3.4-4.8,1.6-11,5.2-15.4
 c1.1,4.3,2.1,8.4,3.2,12.4c0.2,0.7,0.2,1.8,1.3,1.7c0.9,0,1.1-1,1.4-1.7c1-2.2,0.7-5,2.6-7.2c1.7,3.3,0.8,7.4,3.8,9.8
 c2.9-2.4,1.6-6.4,3.9-9.1c2.8,3,1.1,7.8,4.7,10.5c1.4-5.6,2.7-11,4.1-16.7c2.9,4.5,2.7,9.7,5.4,14c2.4-5.8,2.3-11.7,5-17.3
 c1.3,3.5,1,6.7,2.8,10c3.2-8.5,4.1-16.9,6-26.3c3.6,10.8,4.2,21.2,7.3,31.5c4-4.6,3.4-10.3,5.8-15.1c1.3,1.1,1.4,2.3,1.6,3.6
 c0.4,2.5,0.9,4.9,1.5,7.3c0.2,0.9,0,2.1,1.2,2.2c1.3,0,1.8-1.3,1.8-2.2c0.1-2.9,1.5-5.5,2.1-8.4c0.6-3.1,0.7-6.7,3.1-9.6
 c1.8,7.5,3.6,14.5,5.3,21.5c1.5-8.6,4.6-16.6,5.6-25c0.1-0.8,0-1.8,1-1.9c1.4-0.2,1.2,1,1.4,1.9c1.3,5.4,2.6,10.9,3.9,16.4
 c0.3,1.2,0.2,2.6,1.8,3.4c3.3-10.7,5.2-21.5,7.8-32.7c1.1,1.6,1.3,2.8,1.5,4.1c1.8,8.9,3.7,17.7,5.6,26.5c0.1,0.7,0.4,1.3,1.1,1.4
 c0.8,0,1-0.6,1.2-1.3c0.3-1.3,0.5-2.6,0.9-3.8c1.4-5.2,2.9-10.4,4.6-16.7c3.2,7.7,3.3,15.1,7,22.5c1.8-6,3.2-10.9,5-17
 c1.3,4.1,2.2,7,3.2,10c0.4,1.1,0.5,2.6,2,2.5c1.3-0.1,1.3-1.6,1.5-2.5c1.1-5.3,3.2-10.4,4.3-15.9c2.9,5.1,2.7,11.3,5.9,16.7
 c3.6-9.5,6.6-18.5,9.3-28.5c2.3,7.9,4.3,14.8,6.3,21.8c1.3-1.7,1.9-3.3,2.3-5c1.6-7.2,3.1-14.3,4.7-21.5c0.3-1.4,0.4-1.3,1.7-0.5
 c1.7,7.3,2.3,14.8,5.4,21.7c1.5-2.8,1.1-5.8,2.8-8.6c2.2,3.5,1.1,7.9,3.8,11.5c1.7-6.6,3.3-12.7,5.1-19.5c3.5,6.8,4.7,13.2,6.3,19.5
 c0.2,0.9,0.3,2.3,1.8,2.1c1.1-0.1,1.5-1,1.6-2c0.6-4.9,2.5-9.6,3.5-14.4c0.9-4.4,2.9-8.7,4.4-13c2.9,10.4,6.9,20.2,8.3,31.1
 c2.3-1.6,2.2-3.4,2.8-4.9c2.2-5.2,3.3-10.7,5-16c0.3-0.9,0.2-2.5,1.6-2.4c1.3,0.1,1.1,1.5,1.4,2.5c2,6.2,2.8,12.8,6.3,19.4
 c2.4-9.2,4.5-17.5,7-27c0.6,1.7,0.8,2.3,0.9,2.9c1.4,5.6,2.8,11.2,4.3,16.8c0.2,0.9,0.2,2.4,1.7,2.3c1.3-0.1,0.9-1.3,1.1-2.2
 c2.1-8.6,4.2-17.2,6.4-25.7c0.4-1.5,0.2-3.4,1.8-4.6c4.3,10.4,4.3,21.6,8,32c3.7-14,5.3-28.5,10-42.3c0.6,4.3,2.2,8.2,3,12.3
 c1.4,7.2,2.7,14.3,4,21.5c0.2,1,0.7,1.7,1.6,2.1c-0.2,2,0,3.8,1.3,5.6c-0.6-2.1,2.7-3.3,0.9-5.6c0-0.3,0.1-0.5,0.1-0.8
 c1.7-0.7,1.6-1.8,0.7-3.1c1.6-6.4,3.1-12.7,4.7-19.1c0.2-1,0.2-2.4,1.5-2.4c1.6-0.1,1.5,1.5,1.8,2.6c1.1,4.2,2.1,8.4,3.2,12.6
 c0.5,2.1,0.9,4.2,2.4,6.3c3.7-10.8,4.5-21.9,9.2-31.9c3.2,13.9,6.3,27.7,9.5,41.6c3.8-11.3,5.7-22.7,9.9-34.8
 c2.9,10.6,4.6,20.2,8.3,30.4c4.9-13.3,6.5-26.4,11-38.8c4.8,10.7,5.8,22.1,9.4,32.8c3.5-13.8,7-27.3,10.9-41.7
 c1,1.9,1.7,2.8,1.9,3.8c1.5,6,2.9,12.1,4.3,18.1c0.2,0.7-0.2,1.8,0.9,1.9c0.9,0.1,1.2-0.8,1.4-1.6c1.1-4.1,2.2-8.3,3.2-12.4
 c1.3-5.3,2.7-10.5,4-15.8c1.8,9.4,5.9,18,6.9,27.5c3.3-4,2.9-9.2,5.4-14.3c4.2,11.1,5.7,22,9,32.5c3.5-12.7,6.2-25.5,10.6-37.8
 c4.2,11.6,5.9,23.6,9.7,36.2c3.2-12.2,6.1-23.3,9.1-34.4c0.2-0.9,0.2-2,1.5-2c1.1,0.1,0.8,1.2,1,1.9c2.4,8.7,4.6,17.4,6.5,26.3
 C1405.7,708.5,1405.7,710.9,1408.3,711.4z" fill="#000017" style="fill: rgb(0, 0, 23);"></path></g></g><g transform="matrix(2.24067 0 0 2.24069 -4.36133 1.10325) matrix(0.446295 0 0 0.446292 1.94644 -0.492371) matrix(1 0 0 1 0 0) matrix(1 0 0 1 -1.77636e-15 0)"><g style="transform-origin: 610.314px 574.158px; transform: translate(0px, 0px) rotate(0deg) scale(1, 1) skewX(0deg) skewY(0deg); opacity: 1; animation: 12.5s linear -6.6s infinite normal forwards running slide-rtl-8a93d583-acb2-45c9-bf04-56243408be54;"><path d="M642.2,581.3c-66,0-131.9,0-197.9-0.1c-1.3,0-2.6,0-4-0.1c-0.4-2,0.4-3.5,2.5-3.7c5.9-0.6,11.9-0.8,17.7,0.1
 c2.1,0.3,4.2,1.8,6.6,1.5c1.4-0.1,2.3-0.4,3.3-1.6c11.4-13.2,29.6-13.3,41.2-0.3c2,2.2,6.4,1.9,8.9-0.9
 c10.2-11.7,25.6-10.7,35.8-5.4c0.5,0.2,0.8,0.6,1.3,0.9c0.3,0.7,0.8,0.9,1.5,0.9c0,0,0,0,0,0c0.3,0.2,0.6,0.5,0.9,0.7
 c1,1.1,2,2.1,3.1,3.2c0,0.7,0.2,1.2,0.9,1.6c2.8,1.7,5.4,0.9,7.8-0.8c1.5,0,1.7-1.1,1.7-2.2c0,0,0,0,0,0c1.6,0,3-0.5,3-2.5
 c0,0,0,0,0,0c4.9-1.1,9.9-1.8,15-1.7c1.9,0,3.7,1.5,5.6,0.3c0.5,0.2,1,0.4,1.6,0.6c0.1,1.5,1.2,1.6,2.3,1.6c0.3,0.2,0.6,0.5,0.9,0.7
 c0.2,1.9,1.3,3,3.1,3.2l0,0c0.2,0.3,0.4,0.5,0.6,0.8c2.6,1.2,5.2,1.4,7.8-0.1c0.5-0.1,0.8-0.3,0.9-0.9c0,0,0,0,0,0
 c4.3-2.2,8.9-3.6,13.7-4.4c0.5,0.1,1,0.2,1.5,0.3c0.5,1.3,1.5,1.1,2.5,1.1c0.2,0,0.5,0.1,0.7,0.2c0.4,0.5,1,0.7,1.7,0.6
 c0.5,0.1,1,0.1,1.5,0.2c0.2,0.2,0.5,0.5,0.7,0.7c0.9,1.5,1.9,2.5,3.9,2.5C642.5,578.3,643.3,579.4,642.2,581.3z" fill="#FCFEEE" style="fill: rgb(252, 254, 238);"></path></g></g><g transform="matrix(2.24067 0 0 2.24069 -4.36133 1.10325) matrix(0.446295 0 0 0.446292 1.94644 -0.492371) matrix(1 0 0 1 0 0) matrix(1 0 0 1 0 0)"><g style="transform-origin: 1311.9px 576.856px; transform: translate(0px, 0px) rotate(0deg) scale(1, 1) skewX(0deg) skewY(0deg); opacity: 1; animation: 12.5s linear -3.3s infinite normal forwards running slide-rtl-8a93d583-acb2-45c9-bf04-56243408be54;"><path d="M968.6,581.1c-9.6,0-19.2,0-28.9-0.1c-1.1,0-3.1,1-3.1-1.1c0-1.3,1.7-1.4,2.9-1.3c4.5,0.4,8.1-1.1,12.1-3.4
 c6.2-3.6,13.1-3.9,19.3,0.7c1.8,1.3,2.7,1.5,4.6-0.1c5.4-4.7,13-4.2,17.8,1.3c1.7,1.9,3.5,1.3,5.4,1.4c0.9,0.1,2.1-0.3,2.3,1
 c0.2,1.6-1.3,1.3-2.3,1.3C988.6,581,978.6,581,968.6,581.1C968.6,581.1,968.6,581.1,968.6,581.1z" fill="#FCFEEE" style="fill: rgb(252, 254, 238);"></path></g></g><g transform="matrix(0.9999999999999999 0 0 1 0 0) matrix(1 0 0 1 0 0)"><g style="transform-origin: -235.05px 538.056px; transform: translate(0px, 0px) rotate(0deg) scale(1, 1) skewX(0deg) skewY(0deg); opacity: 1; animation: 12.5s linear -1.65s infinite normal forwards running slide-rtl-8a93d583-acb2-45c9-bf04-56243408be54;"><path d="M143.6,542.3c-9.6,0-19.2,0-28.9-0.1c-1.1,0-3.1,1-3.1-1.1c0-1.3,1.7-1.4,2.9-1.3c4.5,0.4,8.1-1.1,12.1-3.4
 c6.2-3.6,13.1-3.9,19.3,0.7c1.8,1.3,2.7,1.5,4.6-0.1c5.4-4.7,13-4.2,17.8,1.3c1.7,1.9,3.5,1.3,5.4,1.4c0.9,0.1,2.1-0.3,2.3,1
 c0.2,1.6-1.3,1.3-2.3,1.3C163.7,542.3,153.6,542.2,143.6,542.3C143.6,542.3,143.6,542.3,143.6,542.3z" fill="#FCFEEE" style="fill: rgb(252, 254, 238);"></path></g></g><g transform="matrix(2.24067 0 0 2.24069 -4.36133 1.10325) matrix(0.446295 0 0 0.446292 1.94644 -0.492371) matrix(1 0 0 1 0 0) matrix(1 0 0 1 0 0)"><g style="transform-origin: 219.902px 129.648px; transform: scale(0.81); animation: 1.14943s linear -0.606897s infinite normal forwards running breath-a779c5f0-3e18-4cd5-82d3-2e62c4b6a03c;"><path d="M220,147.8c-2.3-2.1-1.3-4.7-1.9-6.9c-2.2-7.4-3.9-9.4-11.4-9.8c-1.6-0.1-3.5-0.7-3.5-1.9
 c0-1.5,1.7-2.1,3.5-2.1c7.8,0,11.6-5.5,12-12.6c0.1-1.1-0.8-2.9,0.7-3c1.9-0.1,1.7,1.8,1.7,3.3c0.2,8,4.5,12.3,12.5,12.5
 c1.3,0,3.1-0.4,3,1.4c0,1.2-1.7,1.5-3,1.7c-8.3,0.8-11.9,4.7-12.6,13C220.9,144.7,220.4,146.1,220,147.8z" fill="#FCFEEE" style="fill: rgb(252, 254, 238);"></path></g></g><g transform="matrix(2.24067 0 0 2.24069 -4.36133 1.10325) matrix(0.446295 0 0 0.446292 1.94644 -0.492371) matrix(1 0 0 1 0 0) matrix(1 0 0 1 0 0)"><g style="transform-origin: 541.002px 304.348px; transform: scale(0.81); animation: 1.14943s linear -0.455172s infinite normal forwards running breath-a779c5f0-3e18-4cd5-82d3-2e62c4b6a03c;"><path d="M541.1,322.5c-2.3-2.1-1.3-4.7-1.9-6.9c-2.2-7.4-3.9-9.4-11.4-9.8c-1.6-0.1-3.5-0.7-3.5-1.9
 c0-1.5,1.7-2.1,3.5-2.1c7.8,0,11.6-5.5,12-12.6c0.1-1.1-0.8-2.9,0.7-3c1.9-0.1,1.7,1.8,1.7,3.3c0.2,8,4.5,12.3,12.5,12.5
 c1.3,0,3.1-0.4,3,1.4c0,1.2-1.7,1.5-3,1.7c-8.3,0.8-11.9,4.7-12.6,13C542,319.4,541.5,320.8,541.1,322.5z" fill="#FCFEEE" style="fill: rgb(252, 254, 238);"></path></g></g><g transform="matrix(2.24067 0 0 2.24069 -4.36133 1.10325) matrix(0.446295 0 0 0.446292 1.94644 -0.492371) matrix(1 0 0 1 0 0) matrix(1 0 0 1 0 0)"><g style="transform-origin: 687.802px 68.8481px; transform: scale(0.81); animation: 1.14943s linear -0.303448s infinite normal forwards running breath-a779c5f0-3e18-4cd5-82d3-2e62c4b6a03c;"><path d="M687.9,87c-2.3-2.1-1.3-4.7-1.9-6.9c-2.2-7.4-3.9-9.4-11.4-9.8c-1.6-0.1-3.5-0.7-3.5-1.9
 c0-1.5,1.7-2.1,3.5-2.1c7.8,0,11.6-5.5,12-12.6c0.1-1.1-0.8-2.9,0.7-3c1.9-0.1,1.7,1.8,1.7,3.3c0.2,8,4.5,12.3,12.5,12.5
 c1.3,0,3.1-0.4,3,1.4c0,1.2-1.7,1.5-3,1.7c-8.3,0.8-11.9,4.7-12.6,13C688.8,83.9,688.3,85.2,687.9,87z" fill="#FCFEEE" style="fill: rgb(252, 254, 238);"></path></g></g><g transform="matrix(2.24067 0 0 2.24069 -4.36133 1.10325) matrix(0.446295 0 0 0.446292 1.94644 -0.492371) matrix(1 0 0 1 0 0) matrix(1 0 0 1 0 0)"><g style="transform-origin: 1177.5px 270.948px; transform: scale(0.81); animation: 1.14943s linear -0.151724s infinite normal forwards running breath-a779c5f0-3e18-4cd5-82d3-2e62c4b6a03c;"><path d="M1177.6,289.1c-2.3-2.1-1.3-4.7-1.9-6.9c-2.2-7.4-3.9-9.4-11.4-9.8c-1.6-0.1-3.5-0.7-3.5-1.9
 c0-1.5,1.7-2.1,3.5-2.1c7.8,0,11.6-5.5,12-12.6c0.1-1.1-0.8-2.9,0.7-3c1.9-0.1,1.7,1.8,1.7,3.3c0.2,8,4.5,12.3,12.5,12.5
 c1.3,0,3.1-0.4,3,1.4c0,1.2-1.7,1.5-3,1.7c-8.3,0.8-11.9,4.7-12.6,13C1178.5,286.1,1178,287.4,1177.6,289.1z" fill="#FCFEEE" style="fill: rgb(252, 254, 238);"></path></g></g><g transform="matrix(2.24067 0 0 2.24069 -4.36133 1.10325) matrix(0.446295 0 0 0.446292 1.94644 -0.492371) matrix(1 0 0 1 0 0) matrix(1 0 0 1 -8.88178e-16 0)"><g style="transform-origin: 1043.6px 125.548px; transform: scale(0.81); animation: 1.14943s linear 0s infinite normal forwards running breath-a779c5f0-3e18-4cd5-82d3-2e62c4b6a03c;"><path d="M1043.7,143.7c-2.3-2.1-1.3-4.7-1.9-6.9c-2.2-7.4-3.9-9.4-11.4-9.8c-1.6-0.1-3.5-0.7-3.5-1.9
 c0-1.5,1.7-2.1,3.5-2.1c7.8,0,11.6-5.5,12-12.6c0.1-1.1-0.8-2.9,0.7-3c1.9-0.1,1.7,1.8,1.7,3.3c0.2,8,4.5,12.3,12.5,12.5
 c1.3,0,3.1-0.4,3,1.4c0,1.2-1.7,1.5-3,1.7c-8.3,0.8-11.9,4.7-12.6,13C1044.6,140.7,1044.1,142,1043.7,143.7z" fill="#FCFEEE" style="fill: rgb(252, 254, 238);"></path></g></g><g transform="matrix(2.24067 0 0 2.24069 -4.36133 1.10325) matrix(0.446295 0 0 0.446292 1.94644 -0.492371) matrix(1 0 0 1 0 0) matrix(1 0 0 1 0 0)"><g style="transform-origin: 1092.21px 550.956px; transform: translate(0px, 0px) rotate(0deg) scale(1, 1) skewX(0deg) skewY(0deg); opacity: 1; animation: 12.5s linear 0s infinite normal forwards running slide-rtl-8a93d583-acb2-45c9-bf04-56243408be54;"><path d="M1301.7,555.2c-9.6,0-19.2,0-28.9-0.1c-1.1,0-3.1,1-3.1-1.1c0-1.3,1.7-1.4,2.9-1.3c4.5,0.4,8.1-1.1,12.1-3.4
 c6.2-3.6,13.1-3.9,19.3,0.7c1.8,1.3,2.7,1.5,4.6-0.1c5.4-4.7,13-4.2,17.8,1.3c1.7,1.9,3.5,1.3,5.4,1.4c0.9,0.1,2.1-0.3,2.3,1
 c0.2,1.6-1.3,1.3-2.3,1.3C1321.7,555.1,1311.7,555.1,1301.7,555.2C1301.7,555.1,1301.7,555.2,1301.7,555.2z" fill="#FCFEEE" style="fill: rgb(252, 254, 238);"></path></g></g><g transform="matrix(2.24067 0 0 2.24069 -4.36133 1.10325) matrix(0.446295 0 0 0.446292 1.94644 -0.492371) matrix(1 0 0 1 0 0) matrix(1 0 0 1 0 0)"><g style="transform-origin: 994.914px 531.058px; transform: translate(0px, 0px) rotate(0deg) scale(1, 1) skewX(0deg) skewY(0deg); opacity: 1; animation: 12.5s linear -4.95s infinite normal forwards running slide-rtl-8a93d583-acb2-45c9-bf04-56243408be54;"><path d="M912.5,538.2c-66,0-131.9,0-197.9-0.1c-1.3,0-2.6,0-4-0.1c-0.4-2,0.4-3.5,2.5-3.7c5.9-0.6,11.9-0.8,17.7,0.1
 c2.1,0.3,4.2,1.8,6.6,1.5c1.4-0.1,2.3-0.4,3.3-1.6c11.4-13.2,29.6-13.3,41.2-0.3c2,2.2,6.4,1.9,8.9-0.9
 c10.2-11.7,25.6-10.7,35.8-5.4c0.5,0.2,0.8,0.6,1.3,0.9c0.3,0.7,0.8,0.9,1.5,0.9c0,0,0,0,0,0c0.3,0.2,0.6,0.5,0.9,0.7
 c1,1.1,2,2.1,3.1,3.2c0,0.7,0.2,1.2,0.9,1.6c2.8,1.7,5.4,0.9,7.8-0.8c1.5,0,1.7-1.1,1.7-2.2c0,0,0,0,0,0c1.6,0,3-0.5,3-2.5
 c0,0,0,0,0,0c4.9-1.1,9.9-1.8,15-1.7c1.9,0,3.7,1.5,5.6,0.3c0.5,0.2,1,0.4,1.6,0.6c0.1,1.5,1.2,1.6,2.3,1.6c0.3,0.2,0.6,0.5,0.9,0.7
 c0.2,1.9,1.3,3,3.1,3.2l0,0c0.2,0.3,0.4,0.5,0.6,0.8c2.6,1.2,5.2,1.4,7.8-0.1c0.5-0.1,0.8-0.3,0.9-0.9c0,0,0,0,0,0
 c4.3-2.2,8.9-3.6,13.7-4.4c0.5,0.1,1,0.2,1.5,0.3c0.5,1.3,1.5,1.1,2.5,1.1c0.2,0,0.5,0.1,0.7,0.2c0.4,0.5,1,0.7,1.7,0.6
 c0.5,0.1,1,0.1,1.5,0.2c0.2,0.2,0.5,0.5,0.7,0.7c0.9,1.5,1.9,2.5,3.9,2.5C912.8,535.2,913.6,536.2,912.5,538.2z" fill="#FCFEEE" style="fill: rgb(252, 254, 238);"></path></g></g><g transform="matrix(0.9999999999999998 0 0 1 -8.881784197001252e-16 0) matrix(1 0 0 1 0 0)"><g><circle r="36.8" cy="198" cx="808.4" fill="#FCFEEE" style="cx: 808.4px; cy: 198px; fill: rgb(252, 254, 238); r: 36.8px;"></circle></g></g><g transform="matrix(0.9999999999999998 0 0 1 -8.881784197001252e-16 0) matrix(1 0 0 1 0 0)"><g><circle r="4.3" cy="232" cx="95" fill="#FCFEEE" style="cx: 95px; cy: 232px; fill: rgb(252, 254, 238); r: 4.3px;"></circle></g></g><g transform="matrix(2.24067 0 0 2.24069 -4.36133 1.10325) matrix(0.446295 0 0 0.446292 1.94644 -0.492371) matrix(1 0 0 1 0 0) matrix(1 0 0 1 0 0)"><g><path d="M948.9,414.3c-3.1-7.3-3.1-7.3-11.6-7.4c-1.7,0-4,0.9-5.1-2.1c6.9-0.7,15.8,2.2,16.2-9
 c1.8-0.2,1.1,0.9,1.3,1.6c1.9,6.1,3.3,7.1,9.7,7.3c2.2,0.1,6.5-1,6.3,1c-0.3,2.6-4.2,1.1-6.5,1.2c-3.5,0.2-7-0.6-8.9,3.8
 C949.9,411.8,950.5,413.3,948.9,414.3z" fill="#FCFEEE" style="fill: rgb(252, 254, 238);"></path></g></g><g transform="matrix(2.24067 0 0 2.24069 -4.36133 1.10325) matrix(0.446295 0 0 0.446292 1.94644 -0.492371) matrix(1 0 0 1 0 0) matrix(1 0 0 1 0 0)"><g><path d="M633.9,510.3c-3.1-7.3-3.1-7.3-11.6-7.4c-1.7,0-4,0.9-5.1-2.1c6.9-0.7,15.8,2.2,16.2-9
 c1.8-0.2,1.1,0.9,1.3,1.6c1.9,6.1,3.3,7.1,9.7,7.3c2.2,0.1,6.5-1,6.3,1c-0.3,2.6-4.2,1.1-6.5,1.2c-3.5,0.2-7-0.6-8.9,3.8
 C634.8,507.8,635.5,509.3,633.9,510.3z" fill="#FCFEEE" style="fill: rgb(252, 254, 238);"></path></g></g><g transform="matrix(2.24067 0 0 2.24069 -4.36133 1.10325) matrix(0.446295 0 0 0.446292 1.94644 -0.492371) matrix(1 0 0 1 0 0) matrix(1 0 0 1 -1.77636e-15 0)"><g><path d="M350.1,248.3c-3.1-7.3-3.1-7.3-11.6-7.4c-1.7,0-4,0.9-5.1-2.1c6.9-0.7,15.8,2.2,16.2-9
 c1.8-0.2,1.1,0.9,1.3,1.6c1.9,6.1,3.3,7.1,9.7,7.3c2.2,0.1,6.5-1,6.3,1c-0.3,2.6-4.2,1.1-6.5,1.2c-3.5,0.2-7-0.6-8.9,3.8
 C351,245.8,351.7,247.3,350.1,248.3z" fill="#FCFEEE" style="fill: rgb(252, 254, 238);"></path></g></g><g transform="matrix(1 0 0 1 0 0)"><g><circle r="4.3" cy="435.7" cx="269.8" fill="#FCFEEE" style="cx: 269.8px; cy: 435.7px; fill: rgb(252, 254, 238); r: 4.3px;"></circle></g></g><g transform="matrix(1 0 0 1 0 0)"><g><circle r="4.3" cy="51.3" cx="218.2" fill="#FCFEEE" style="cx: 218.2px; cy: 51.3px; fill: rgb(252, 254, 238); r: 4.3px;"></circle></g></g><g transform="matrix(1 0 0 1 0 0)"><g><circle r="4.3" cy="49.7" cx="1251.2" fill="#FCFEEE" style="cx: 1251.2px; cy: 49.7px; fill: rgb(252, 254, 238); r: 4.3px;"></circle></g></g><g transform="matrix(1 0 0 1 0 0)"><g><circle r="4.3" cy="41.4" cx="544.4" fill="#FCFEEE" style="cx: 544.4px; cy: 41.4px; fill: rgb(252, 254, 238); r: 4.3px;"></circle></g></g><g transform="matrix(1 0 0 1 0 0)"><g><circle r="4.3" cy="313.4" cx="1087.6" fill="#FCFEEE" style="cx: 1087.6px; cy: 313.4px; fill: rgb(252, 254, 238); r: 4.3px;"></circle></g></g><g transform="matrix(1 0 0 1 0 0)"><g><circle r="4.3" cy="410.4" cx="64.5" fill="#FCFEEE" style="cx: 64.5px; cy: 410.4px; fill: rgb(252, 254, 238); r: 4.3px;"></circle></g></g><g transform="matrix(1 0 0 1 0 0)"><g><circle r="4.3" cy="108.9" cx="300.9" fill="#FCFEEE" style="cx: 300.9px; cy: 108.9px; fill: rgb(252, 254, 238); r: 4.3px;"></circle></g></g><g transform="matrix(1 0 0 1 0 0)"><g><circle r="4.3" cy="432.5" cx="1149" fill="#FCFEEE" style="cx: 1149px; cy: 432.5px; fill: rgb(252, 254, 238); r: 4.3px;"></circle></g></g><g transform="matrix(1 0 0 1 0 0)"><g><circle r="4.3" cy="514.7" cx="604.9" fill="#FCFEEE" style="cx: 604.9px; cy: 514.7px; fill: rgb(252, 254, 238); r: 4.3px;"></circle></g></g><g transform="matrix(1 0 0 1 0 0)"><g><circle r="4.3" cy="320.9" cx="633.5" fill="#FCFEEE" style="cx: 633.5px; cy: 320.9px; fill: rgb(252, 254, 238); r: 4.3px;"></circle></g></g><g transform="matrix(1 0 0 1 0 0)"><g><circle r="4.3" cy="433.3" cx="225.3" fill="#FCFEEE" style="cx: 225.3px; cy: 433.3px; fill: rgb(252, 254, 238); r: 4.3px;"></circle></g></g><g transform="matrix(1 0 0 1 0 0)"><g><circle r="4.3" cy="370" cx="999.8" fill="#FCFEEE" style="cx: 999.8px; cy: 370px; fill: rgb(252, 254, 238); r: 4.3px;"></circle></g></g><g transform="matrix(1 0 0 1 0 0)"><g><circle r="4.3" cy="139.7" cx="471.2" fill="#FCFEEE" style="cx: 471.2px; cy: 139.7px; fill: rgb(252, 254, 238); r: 4.3px;"></circle></g></g><g transform="matrix(1 0 0 1 0 0)"><g><circle r="4.3" cy="434.6" cx="1364.5" fill="#FCFEEE" style="cx: 1364.5px; cy: 434.6px; fill: rgb(252, 254, 238); r: 4.3px;"></circle></g></g><g transform="matrix(1 0 0 1 0 0)"><g><circle r="4.3" cy="433.8" cx="1312" fill="#FCFEEE" style="cx: 1312px; cy: 433.8px; fill: rgb(252, 254, 238); r: 4.3px;"></circle></g></g><g transform="matrix(1 0 0 1 0 0)"><g><circle r="4.3" cy="365.7" cx="834.2" fill="#FCFEEE" style="cx: 834.2px; cy: 365.7px; fill: rgb(252, 254, 238); r: 4.3px;"></circle></g></g><g transform="matrix(1 0 0 1 0 0)"><g><circle r="4.3" cy="49" cx="1026.8" fill="#FCFEEE" style="cx: 1026.8px; cy: 49px; fill: rgb(252, 254, 238); r: 4.3px;"></circle></g></g><g transform="matrix(1 0 0 1 0 0)"><g><circle r="4.3" cy="305.1" cx="281.3" fill="#FCFEEE" style="cx: 281.3px; cy: 305.1px; fill: rgb(252, 254, 238); r: 4.3px;"></circle></g></g><g transform="matrix(1 0 0 1 0 0)"><g><circle r="4.3" cy="351.1" cx="384.2" fill="#FCFEEE" style="cx: 384.2px; cy: 351.1px; fill: rgb(252, 254, 238); r: 4.3px;"></circle></g></g><g transform="matrix(1 0 0 1 0 0)"><g><circle r="4.3" cy="490.6" cx="539.3" fill="#FCFEEE" style="cx: 539.3px; cy: 490.6px; fill: rgb(252, 254, 238); r: 4.3px;"></circle></g></g><g transform="matrix(1 0 0 1 0 0)"><g><circle r="4.3" cy="309.7" cx="905.9" fill="#FCFEEE" style="cx: 905.9px; cy: 309.7px; fill: rgb(252, 254, 238); r: 4.3px;"></circle></g></g><g transform="matrix(1 0 0 1 0 0)"><g><circle r="4.3" cy="398.9" cx="1270.4" fill="#FCFEEE" style="cx: 1270.4px; cy: 398.9px; fill: rgb(252, 254, 238); r: 4.3px;"></circle></g></g><g transform="matrix(1 0 0 1 0 0)"><g><circle r="4.3" cy="82.5" cx="824.4" fill="#FCFEEE" style="cx: 824.4px; cy: 82.5px; fill: rgb(252, 254, 238); r: 4.3px;"></circle></g></g><g transform="matrix(1 0 0 1 0 0)"><g><circle r="4.3" cy="344.9" cx="1049.7" fill="#FCFEEE" style="cx: 1049.7px; cy: 344.9px; fill: rgb(252, 254, 238); r: 4.3px;"></circle></g></g><g transform="matrix(1 0 0 1 0 0)"><g><circle r="4.3" cy="159" cx="1170.1" fill="#FCFEEE" style="cx: 1170.1px; cy: 159px; fill: rgb(252, 254, 238); r: 4.3px;"></circle></g></g><g transform="matrix(1 0 0 1 0 0)"><g><circle r="4.3" cy="84.4" cx="405.5" fill="#FCFEEE" style="cx: 405.5px; cy: 84.4px; fill: rgb(252, 254, 238); r: 4.3px;"></circle></g></g><g transform="matrix(1 0 0 1 0 0)"><g><circle r="4.3" cy="73.4" cx="1087.7" fill="#FCFEEE" style="cx: 1087.7px; cy: 73.4px; fill: rgb(252, 254, 238); r: 4.3px;"></circle></g></g><g transform="matrix(1 0 0 1 0 0)"><g><circle r="4.3" cy="357" cx="1366.6" fill="#FCFEEE" style="cx: 1366.6px; cy: 357px; fill: rgb(252, 254, 238); r: 4.3px;"></circle></g></g><g transform="matrix(1 0 0 1 0 0)"><g><circle r="4.3" cy="229" cx="870" fill="#FCFEEE" style="cx: 870px; cy: 229px; fill: rgb(252, 254, 238); r: 4.3px;"></circle></g></g><g transform="matrix(1 0 0 1 0 0)"><g><circle r="4.3" cy="158.1" cx="146" fill="#FCFEEE" style="cx: 146px; cy: 158.1px; fill: rgb(252, 254, 238); r: 4.3px;"></circle></g></g><g transform="matrix(1 0 0 1 0 0)"><g><circle r="4.3" cy="464.8" cx="1041.1" fill="#FCFEEE" style="cx: 1041.1px; cy: 464.8px; fill: rgb(252, 254, 238); r: 4.3px;"></circle></g></g><g transform="matrix(1 0 0 1 0 0)"><g><circle r="4.3" cy="93.3" cx="623.8" fill="#FCFEEE" style="cx: 623.8px; cy: 93.3px; fill: rgb(252, 254, 238); r: 4.3px;"></circle></g></g><g transform="matrix(1 0 0 1 0 0)"><g><circle r="4.3" cy="55.6" cx="1350" fill="#FCFEEE" style="cx: 1350px; cy: 55.6px; fill: rgb(252, 254, 238); r: 4.3px;"></circle></g></g><g transform="matrix(1 0 0 1 0 0)"><g><circle r="4.3" cy="333.3" cx="198.7" fill="#FCFEEE" style="cx: 198.7px; cy: 333.3px; fill: rgb(252, 254, 238); r: 4.3px;"></circle></g></g><g transform="matrix(1 0 0 1 0 0)"><g><circle r="4.3" cy="408.1" cx="392.6" fill="#FCFEEE" style="cx: 392.6px; cy: 408.1px; fill: rgb(252, 254, 238); r: 4.3px;"></circle></g></g><g transform="matrix(1 0 0 1 0 0)"><g><circle r="4.3" cy="272.7" cx="592.3" fill="#FCFEEE" style="cx: 592.3px; cy: 272.7px; fill: rgb(252, 254, 238); r: 4.3px;"></circle></g></g><g transform="matrix(1 0 0 1 0 0)"><g><circle r="4.3" cy="299.2" cx="977.2" fill="#FCFEEE" style="cx: 977.2px; cy: 299.2px; fill: rgb(252, 254, 238); r: 4.3px;"></circle></g></g><g transform="matrix(1 0 0 1 0 0)"><g><circle r="4.3" cy="399.8" cx="628.3" fill="#FCFEEE" style="cx: 628.3px; cy: 399.8px; fill: rgb(252, 254, 238); r: 4.3px;"></circle></g></g><g transform="matrix(1 0 0 1 0 0)"><g><circle r="4.3" cy="91.1" cx="914.1" fill="#FCFEEE" style="cx: 914.1px; cy: 91.1px; fill: rgb(252, 254, 238); r: 4.3px;"></circle></g></g><g transform="matrix(1 0 0 1 0 0)"><g><circle r="4.3" cy="177.5" cx="629.1" fill="#FCFEEE" style="cx: 629.1px; cy: 177.5px; fill: rgb(252, 254, 238); r: 4.3px;"></circle></g></g><g transform="matrix(1 0 0 1 0 0)"><g><circle r="4.3" cy="237.3" cx="1228.4" fill="#FCFEEE" style="cx: 1228.4px; cy: 237.3px; fill: rgb(252, 254, 238); r: 4.3px;"></circle></g></g><g transform="matrix(1 0 0 1 0 0)"><g><circle r="4.3" cy="286.2" cx="703.9" fill="#FCFEEE" style="cx: 703.9px; cy: 286.2px; fill: rgb(252, 254, 238); r: 4.3px;"></circle></g></g><g transform="matrix(1 0 0 1 0 0)"><g><circle r="4.3" cy="379.6" cx="508.8" fill="#FCFEEE" style="cx: 508.8px; cy: 379.6px; fill: rgb(252, 254, 238); r: 4.3px;"></circle></g></g><g transform="matrix(1 0 0 1 0 0)"><g><circle r="4.3" cy="128.8" cx="1172.4" fill="#FCFEEE" style="cx: 1172.4px; cy: 128.8px; fill: rgb(252, 254, 238); r: 4.3px;"></circle></g></g><g transform="matrix(1 0 0 1 0 0)"><g><circle r="4.3" cy="168.3" cx="1261.6" fill="#FCFEEE" style="cx: 1261.6px; cy: 168.3px; fill: rgb(252, 254, 238); r: 4.3px;"></circle></g></g><g transform="matrix(1 0 0 1 0 0)"><g><circle r="4.3" cy="238.4" cx="1144.7" fill="#FCFEEE" style="cx: 1144.7px; cy: 238.4px; fill: rgb(252, 254, 238); r: 4.3px;"></circle></g></g><g transform="matrix(1 0 0 1 0 0)"><g><circle r="4.3" cy="74.2" cx="1198.4" fill="#FCFEEE" style="cx: 1198.4px; cy: 74.2px; fill: rgb(252, 254, 238); r: 4.3px;"></circle></g></g><g transform="matrix(1 0 0 1 0 0)"><g><circle r="4.3" cy="68.2" cx="90" fill="#FCFEEE" style="cx: 90px; cy: 68.2px; fill: rgb(252, 254, 238); r: 4.3px;"></circle></g></g><g transform="matrix(1 0 0 1 0 0)"><g><circle r="4.3" cy="461.4" cx="294.1" fill="#FCFEEE" style="cx: 294.1px; cy: 461.4px; fill: rgb(252, 254, 238); r: 4.3px;"></circle></g></g><g transform="matrix(1 0 0 1 0 0)"><g><circle r="4.3" cy="69.1" cx="1302.8" fill="#FCFEEE" style="cx: 1302.8px; cy: 69.1px; fill: rgb(252, 254, 238); r: 4.3px;"></circle></g></g><g transform="matrix(1 0 0 1 0 0)"><g><circle r="4.3" cy="165.8" cx="1363.2" fill="#FCFEEE" style="cx: 1363.2px; cy: 165.8px; fill: rgb(252, 254, 238); r: 4.3px;"></circle></g></g><g transform="matrix(1 0 0 1 0 0)"><g><circle r="4.3" cy="304.6" cx="1306.1" fill="#FCFEEE" style="cx: 1306.1px; cy: 304.6px; fill: rgb(252, 254, 238); r: 4.3px;"></circle></g></g><g transform="matrix(1 0 0 1 0 0)"><g><circle r="4.3" cy="385.4" cx="1114.5" fill="#FCFEEE" style="cx: 1114.5px; cy: 385.4px; fill: rgb(252, 254, 238); r: 4.3px;"></circle></g></g><g transform="matrix(1 0 0 1 0 0)"><g><circle r="4.3" cy="333.4" cx="119.8" fill="#FCFEEE" style="cx: 119.8px; cy: 333.4px; fill: rgb(252, 254, 238); r: 4.3px;"></circle></g></g><g transform="matrix(1 0 0 1 0 0)"><g><circle r="4.3" cy="326.6" cx="1008.4" fill="#FCFEEE" style="cx: 1008.4px; cy: 326.6px; fill: rgb(252, 254, 238); r: 4.3px;"></circle></g></g><g transform="matrix(1 0 0 1 0 0)"><g><circle r="4.3" cy="31.1" cx="124.9" fill="#FCFEEE" style="cx: 124.9px; cy: 31.1px; fill: rgb(252, 254, 238); r: 4.3px;"></circle></g></g><g transform="matrix(1 0 0 1 0 0)"><g><circle r="4.3" cy="248.7" cx="411.9" fill="#FCFEEE" style="cx: 411.9px; cy: 248.7px; fill: rgb(252, 254, 238); r: 4.3px;"></circle></g></g><g transform="matrix(1 0 0 1 0 0)"><g><circle r="4.3" cy="190.4" cx="970.5" fill="#FCFEEE" style="cx: 970.5px; cy: 190.4px; fill: rgb(252, 254, 238); r: 4.3px;"></circle></g></g><g transform="matrix(1 0 0 1 0 0)"><g><circle r="4.3" cy="218.4" cx="1087" fill="#FCFEEE" style="cx: 1087px; cy: 218.4px; fill: rgb(252, 254, 238); r: 4.3px;"></circle></g></g><g transform="matrix(1 0 0 1 0 0)"><g><circle r="4.3" cy="351.1" cx="1335.4" fill="#FCFEEE" style="cx: 1335.4px; cy: 351.1px; fill: rgb(252, 254, 238); r: 4.3px;"></circle></g></g><g transform="matrix(1 0 0 1 0 0)"><g><circle r="4.3" cy="396.6" cx="142.4" fill="#FCFEEE" style="cx: 142.4px; cy: 396.6px; fill: rgb(252, 254, 238); r: 4.3px;"></circle></g></g><g transform="matrix(1 0 0 1 0 0)"><g><circle r="4.3" cy="463.9" cx="182.7" fill="#FCFEEE" style="cx: 182.7px; cy: 463.9px; fill: rgb(252, 254, 238); r: 4.3px;"></circle></g></g><g transform="matrix(1 0 0 1 0 0)"><g><circle r="4.3" cy="421.3" cx="1211.4" fill="#FCFEEE" style="cx: 1211.4px; cy: 421.3px; fill: rgb(252, 254, 238); r: 4.3px;"></circle></g></g><g transform="matrix(1 0 0 1 0 0)"><g><circle r="4.3" cy="229.4" cx="213.1" fill="#FCFEEE" style="cx: 213.1px; cy: 229.4px; fill: rgb(252, 254, 238); r: 4.3px;"></circle></g></g><g transform="matrix(1 0 0 1 0 0)"><g><path d="M781.9,439.4c-2.3-2.1-1.3-4.7-1.9-6.9c-2.2-7.4-3.9-9.4-11.4-9.8c-1.6-0.1-3.5-0.7-3.5-1.9
 c0-1.5,1.7-2.1,3.5-2.1c7.8,0,11.6-5.5,12-12.6c0.1-1.1-0.8-2.9,0.7-3c1.9-0.1,1.7,1.8,1.7,3.3c0.2,8,4.5,12.3,12.5,12.5
 c1.3,0,3.1-0.4,3,1.4c0,1.2-1.7,1.5-3,1.7c-8.3,0.8-11.9,4.7-12.6,13C782.9,436.4,782.4,437.7,781.9,439.4z" fill="#FCFEEE" style="fill: rgb(252, 254, 238);"></path></g></g><g transform="matrix(1 0 0 1 0 0)"><g><circle r="2.5" cy="454.3" cx="712.3" fill="#195870" style="cx: 712.3px; cy: 454.3px; fill: rgb(25, 88, 112); r: 2.5px;"></circle></g></g><g transform="matrix(1 0 0 1 0 0)"><g><circle r="2.5" cy="88.5" cx="379.5" fill="#195870" style="cx: 379.5px; cy: 88.5px; fill: rgb(25, 88, 112); r: 2.5px;"></circle></g></g><g transform="matrix(1 0 0 1 0 0)"><g><circle r="2.5" cy="89" cx="1404.5" fill="#195870" style="cx: 1404.5px; cy: 89px; fill: rgb(25, 88, 112); r: 2.5px;"></circle></g></g><g transform="matrix(1 0 0 1 0 0)"><g><circle r="2.5" cy="45.3" cx="379.6" fill="#195870" style="cx: 379.6px; cy: 45.3px; fill: rgb(25, 88, 112); r: 2.5px;"></circle></g></g><g transform="matrix(1 0 0 1 0 0)"><g><circle r="2.5" cy="379.1" cx="1036.2" fill="#195870" style="cx: 1036.2px; cy: 379.1px; fill: rgb(25, 88, 112); r: 2.5px;"></circle></g></g><g transform="matrix(2.24067 0 0 2.24069 -4.36133 1.10325) matrix(0.446295 0 0 0.446292 1.94644 -0.492371) matrix(1 0 0 1 -8.88178e-16 0) matrix(1 0 0 1 0 0)"><g><circle r="2.5" cy="21.1" cx="599.3" fill="#195870" style="cx: 599.3px; cy: 21.1px; fill: rgb(25, 88, 112); r: 2.5px;"></circle></g></g><g transform="matrix(1 0 0 1 0 0)"><g><circle r="2.5" cy="426.9" cx="614.7" fill="#195870" style="cx: 614.7px; cy: 426.9px; fill: rgb(25, 88, 112); r: 2.5px;"></circle></g></g><g transform="matrix(1 0 0 1 0 0)"><g><circle r="2.5" cy="348" cx="447.9" fill="#195870" style="cx: 447.9px; cy: 348px; fill: rgb(25, 88, 112); r: 2.5px;"></circle></g></g><g transform="matrix(1 0 0 1 0 0)"><g><circle r="2.5" cy="12.5" cx="1200.1" fill="#195870" style="cx: 1200.1px; cy: 12.5px; fill: rgb(25, 88, 112); r: 2.5px;"></circle></g></g><g transform="matrix(1 0 0 1 0 0)"><g><circle r="2.5" cy="201" cx="1374.1" fill="#195870" style="cx: 1374.1px; cy: 201px; fill: rgb(25, 88, 112); r: 2.5px;"></circle></g></g><g transform="matrix(1 0 0 1 0 0)"><g><circle r="2.5" cy="8.6" cx="1082.7" fill="#195870" style="cx: 1082.7px; cy: 8.6px; fill: rgb(25, 88, 112); r: 2.5px;"></circle></g></g><g transform="matrix(1 0 0 1 0 0)"><g><circle r="2.5" cy="88.2" cx="228.7" fill="#195870" style="cx: 228.7px; cy: 88.2px; fill: rgb(25, 88, 112); r: 2.5px;"></circle></g></g><g transform="matrix(1 0 0 1 0 0)"><g><circle r="2.5" cy="57" cx="716" fill="#195870" style="cx: 716px; cy: 57px; fill: rgb(25, 88, 112); r: 2.5px;"></circle></g></g><g transform="matrix(1 0 0 1 0 0)"><g><circle r="2.5" cy="201.7" cx="1185.9" fill="#195870" style="cx: 1185.9px; cy: 201.7px; fill: rgb(25, 88, 112); r: 2.5px;"></circle></g></g><g transform="matrix(1 0 0 1 0 0)"><g><circle r="2.5" cy="317.5" cx="34.5" fill="#195870" style="cx: 34.5px; cy: 317.5px; fill: rgb(25, 88, 112); r: 2.5px;"></circle></g></g><g transform="matrix(1 0 0 1 0 0)"><g><circle r="2.5" cy="303.5" cx="1270" fill="#195870" style="cx: 1270px; cy: 303.5px; fill: rgb(25, 88, 112); r: 2.5px;"></circle></g></g><g transform="matrix(1 0 0 1 0 0)"><g><circle r="2.5" cy="479.5" cx="864" fill="#195870" style="cx: 864px; cy: 479.5px; fill: rgb(25, 88, 112); r: 2.5px;"></circle></g></g><g transform="matrix(1 0 0 1 0 0)"><g><circle r="2.5" cy="98.4" cx="1287.4" fill="#195870" style="cx: 1287.4px; cy: 98.4px; fill: rgb(25, 88, 112); r: 2.5px;"></circle></g></g><g transform="matrix(1 0 0 1 0 0)"><g><circle r="2.5" cy="29.5" cx="1245.6" fill="#195870" style="cx: 1245.6px; cy: 29.5px; fill: rgb(25, 88, 112); r: 2.5px;"></circle></g></g><g transform="matrix(1 0 0 1 0 0)"><g><circle r="2.5" cy="297.1" cx="206.5" fill="#195870" style="cx: 206.5px; cy: 297.1px; fill: rgb(25, 88, 112); r: 2.5px;"></circle></g></g><g transform="matrix(1 0 0 1 0 0)"><g><circle r="2.5" cy="405.3" cx="81.3" fill="#195870" style="cx: 81.3px; cy: 405.3px; fill: rgb(25, 88, 112); r: 2.5px;"></circle></g></g><g transform="matrix(1 0 0 1 0 0)"><g><circle r="2.5" cy="323.2" cx="786.7" fill="#195870" style="cx: 786.7px; cy: 323.2px; fill: rgb(25, 88, 112); r: 2.5px;"></circle></g></g><g transform="matrix(1 0 0 1 0 0)"><g><circle r="2.5" cy="347.5" cx="861.9" fill="#195870" style="cx: 861.9px; cy: 347.5px; fill: rgb(25, 88, 112); r: 2.5px;"></circle></g></g><g transform="matrix(1 0 0 1 0 0)"><g><circle r="2.5" cy="366.7" cx="999.9" fill="#195870" style="cx: 999.9px; cy: 366.7px; fill: rgb(25, 88, 112); r: 2.5px;"></circle></g></g><g transform="matrix(1 0 0 1 0 0)"><g><circle r="2.5" cy="236.7" cx="738.4" fill="#195870" style="cx: 738.4px; cy: 236.7px; fill: rgb(25, 88, 112); r: 2.5px;"></circle></g></g><g transform="matrix(1 0 0 1 0 0)"><g><circle r="2.5" cy="237.1" cx="543.5" fill="#195870" style="cx: 543.5px; cy: 237.1px; fill: rgb(25, 88, 112); r: 2.5px;"></circle></g></g><g transform="matrix(2.24067 0 0 2.24069 -4.36133 1.10325) matrix(0.446295 0 0 0.446292 1.94644 -0.492371) matrix(1 0 0 1 -8.88178e-16 0) matrix(1 0 0 1 0 0)"><g><circle r="2.5" cy="279.5" cx="864.5" fill="#195870" style="cx: 864.5px; cy: 279.5px; fill: rgb(25, 88, 112); r: 2.5px;"></circle></g></g><g transform="matrix(1 0 0 1 0 0)"><g><circle r="2.5" cy="214.1" cx="62.3" fill="#195870" style="cx: 62.3px; cy: 214.1px; fill: rgb(25, 88, 112); r: 2.5px;"></circle></g></g><g transform="matrix(2.24067 0 0 2.24069 -4.36133 1.10325) matrix(0.446295 0 0 0.446292 1.94644 -0.492371) matrix(1 0 0 1 -8.88178e-16 0) matrix(1 0 0 1 0 0)"><g><circle r="2.5" cy="367.9" cx="291.9" fill="#195870" style="cx: 291.9px; cy: 367.9px; fill: rgb(25, 88, 112); r: 2.5px;"></circle></g></g><g transform="matrix(1 0 0 1 0 0)"><g><circle r="2.5" cy="389.7" cx="878.3" fill="#195870" style="cx: 878.3px; cy: 389.7px; fill: rgb(25, 88, 112); r: 2.5px;"></circle></g></g><g transform="matrix(1 0 0 1 0 0)"><g><circle r="2.5" cy="243.3" cx="1347.9" fill="#195870" style="cx: 1347.9px; cy: 243.3px; fill: rgb(25, 88, 112); r: 2.5px;"></circle></g></g><g transform="matrix(1 0 0 1 0 0)"><g><circle r="2.5" cy="79.4" cx="767.2" fill="#195870" style="cx: 767.2px; cy: 79.4px; fill: rgb(25, 88, 112); r: 2.5px;"></circle></g></g></g></g></g><style id="breath-28a0ebe1-1bbd-4039-9077-17be05faaea2" data-anikit="">@keyframes breath-28a0ebe1-1bbd-4039-9077-17be05faaea2
{
  0% {
    animation-timing-function: cubic-bezier(0.9647,0.2413,-0.0705,0.7911);
    transform: scale(0.8099999999999999);
  }
  51% {
    animation-timing-function: cubic-bezier(0.9226,0.2631,-0.0308,0.7628);
    transform: scale(1.12984);
  }
  100% {
    transform: scale(0.8099999999999999);
  }
}</style><style id="wander-h-d9222d49-de3c-4fa4-80b9-fc923185e2a3" data-anikit="">@keyframes wander-h-d9222d49-de3c-4fa4-80b9-fc923185e2a3
{
  0% {
    animation-timing-function: cubic-bezier(0.7806,0.0715,0.8998,0.731);
    transform: translate(-10px,0);
  }
  17.5% {
    animation-timing-function: cubic-bezier(0.484,0.3308,0.6853,0.6667);
    transform: translate(-6.18px,0);
  }
  27.6% {
    animation-timing-function: cubic-bezier(0.2459,0.3343,0.4923,0.6717);
    transform: translate(2.48px,0);
  }
  35.1% {
    animation-timing-function: cubic-bezier(0.1317,0.3401,0.311,0.9176);
    transform: translate(7.49px,0);
  }
  50.1% {
    animation-timing-function: cubic-bezier(0.7773,0.0708,0.9008,0.735);
    transform: translate(10px,0);
  }
  67.6% {
    animation-timing-function: cubic-bezier(0.4888,0.331,0.6153,0.6674);
    transform: translate(6.16px,0);
  }
  80% {
    animation-timing-function: cubic-bezier(0.2539,0.3274,0.5671,0.676);
    transform: translate(-4.57px,0);
  }
  85% {
    animation-timing-function: cubic-bezier(0.1302,0.3349,0.3113,0.9183);
    transform: translate(-7.47px,0);
  }
  100% {
    transform: translate(-10px,0);
  }
}</style><style id="wander-h-d9222d49-de3c-4fa4-80b9-fc923185e2a3" data-anikit="">@keyframes wander-h-d9222d49-de3c-4fa4-80b9-fc923185e2a3
{
  0% {
    animation-timing-function: cubic-bezier(0.7806,0.0715,0.8998,0.731);
    transform: translate(-10px,0);
  }
  17.5% {
    animation-timing-function: cubic-bezier(0.484,0.3308,0.6853,0.6667);
    transform: translate(-6.18px,0);
  }
  27.6% {
    animation-timing-function: cubic-bezier(0.2459,0.3343,0.4923,0.6717);
    transform: translate(2.48px,0);
  }
  35.1% {
    animation-timing-function: cubic-bezier(0.1317,0.3401,0.311,0.9176);
    transform: translate(7.49px,0);
  }
  50.1% {
    animation-timing-function: cubic-bezier(0.7773,0.0708,0.9008,0.735);
    transform: translate(10px,0);
  }
  67.6% {
    animation-timing-function: cubic-bezier(0.4888,0.331,0.6153,0.6674);
    transform: translate(6.16px,0);
  }
  80% {
    animation-timing-function: cubic-bezier(0.2539,0.3274,0.5671,0.676);
    transform: translate(-4.57px,0);
  }
  85% {
    animation-timing-function: cubic-bezier(0.1302,0.3349,0.3113,0.9183);
    transform: translate(-7.47px,0);
  }
  100% {
    transform: translate(-10px,0);
  }
}</style><style id="slide-rtl-8a93d583-acb2-45c9-bf04-56243408be54" data-anikit="">@keyframes slide-rtl-8a93d583-acb2-45c9-bf04-56243408be54
{
  0% {
    animation-timing-function: cubic-bezier(0.4652,0.1051,0.774,0.6426);
    transform: translate(0px,0px) rotate(0deg) scale(1,1) skewX(0deg) skewY(0deg);
    opacity: 1;
  }
  22.5% {
    animation-timing-function: cubic-bezier(0.4142,0.3131,0.7623,0.6513);
    transform: translate(-124.28px,0px) rotate(0deg) scale(1,1) skewX(0deg) skewY(0deg);
    opacity: 1;
  }
  45% {
    animation-timing-function: cubic-bezier(0.3615,0.331,0.9646,1.3461);
    transform: translate(-384.28px,0px) rotate(0deg) scale(1,1) skewX(0deg) skewY(0deg);
    opacity: 1;
  }
  47.5% {
    animation-timing-function: cubic-bezier(0.7006,0.3332,0.6667,0.6667);
    transform: translate(-430.56px,0px) rotate(0deg) scale(1,1) skewX(0deg) skewY(0deg);
    opacity: 0;
  }
  50% {
    animation-timing-function: cubic-bezier(0.1604,0.3176,-0.0218,0.6965);
    transform: translate(520px,0px) rotate(0deg) scale(1,1) skewX(0deg) skewY(0deg);
    opacity: 0;
  }
  51% {
    animation-timing-function: cubic-bezier(0.1983,0.3529,0.5263,0.6945);
    transform: translate(467.48px,0px) rotate(0deg) scale(1,1) skewX(0deg) skewY(0deg);
    opacity: 0;
  }
  80.4% {
    animation-timing-function: cubic-bezier(0.2342,0.3708,0.5422,0.9065);
    transform: translate(99.84px,0px) rotate(0deg) scale(1,1) skewX(0deg) skewY(0deg);
    opacity: 1;
  }
  100% {
    transform: translate(0px,0px) rotate(0deg) scale(1,1) skewX(0deg) skewY(0deg);
    opacity: 1;
  }
}</style><style id="slide-rtl-8a93d583-acb2-45c9-bf04-56243408be54" data-anikit="">@keyframes slide-rtl-8a93d583-acb2-45c9-bf04-56243408be54
{
  0% {
    animation-timing-function: cubic-bezier(0.4652,0.1051,0.774,0.6426);
    transform: translate(0px,0px) rotate(0deg) scale(1,1) skewX(0deg) skewY(0deg);
    opacity: 1;
  }
  22.5% {
    animation-timing-function: cubic-bezier(0.4142,0.3131,0.7623,0.6513);
    transform: translate(-124.28px,0px) rotate(0deg) scale(1,1) skewX(0deg) skewY(0deg);
    opacity: 1;
  }
  45% {
    animation-timing-function: cubic-bezier(0.3615,0.331,0.9646,1.3461);
    transform: translate(-384.28px,0px) rotate(0deg) scale(1,1) skewX(0deg) skewY(0deg);
    opacity: 1;
  }
  47.5% {
    animation-timing-function: cubic-bezier(0.7006,0.3332,0.6667,0.6667);
    transform: translate(-430.56px,0px) rotate(0deg) scale(1,1) skewX(0deg) skewY(0deg);
    opacity: 0;
  }
  50% {
    animation-timing-function: cubic-bezier(0.1604,0.3176,-0.0218,0.6965);
    transform: translate(520px,0px) rotate(0deg) scale(1,1) skewX(0deg) skewY(0deg);
    opacity: 0;
  }
  51% {
    animation-timing-function: cubic-bezier(0.1983,0.3529,0.5263,0.6945);
    transform: translate(467.48px,0px) rotate(0deg) scale(1,1) skewX(0deg) skewY(0deg);
    opacity: 0;
  }
  80.4% {
    animation-timing-function: cubic-bezier(0.2342,0.3708,0.5422,0.9065);
    transform: translate(99.84px,0px) rotate(0deg) scale(1,1) skewX(0deg) skewY(0deg);
    opacity: 1;
  }
  100% {
    transform: translate(0px,0px) rotate(0deg) scale(1,1) skewX(0deg) skewY(0deg);
    opacity: 1;
  }
}</style><style id="slide-rtl-8a93d583-acb2-45c9-bf04-56243408be54" data-anikit="">@keyframes slide-rtl-8a93d583-acb2-45c9-bf04-56243408be54
{
  0% {
    animation-timing-function: cubic-bezier(0.4652,0.1051,0.774,0.6426);
    transform: translate(0px,0px) rotate(0deg) scale(1,1) skewX(0deg) skewY(0deg);
    opacity: 1;
  }
  22.5% {
    animation-timing-function: cubic-bezier(0.4142,0.3131,0.7623,0.6513);
    transform: translate(-124.28px,0px) rotate(0deg) scale(1,1) skewX(0deg) skewY(0deg);
    opacity: 1;
  }
  45% {
    animation-timing-function: cubic-bezier(0.3615,0.331,0.9646,1.3461);
    transform: translate(-384.28px,0px) rotate(0deg) scale(1,1) skewX(0deg) skewY(0deg);
    opacity: 1;
  }
  47.5% {
    animation-timing-function: cubic-bezier(0.7006,0.3332,0.6667,0.6667);
    transform: translate(-430.56px,0px) rotate(0deg) scale(1,1) skewX(0deg) skewY(0deg);
    opacity: 0;
  }
  50% {
    animation-timing-function: cubic-bezier(0.1604,0.3176,-0.0218,0.6965);
    transform: translate(520px,0px) rotate(0deg) scale(1,1) skewX(0deg) skewY(0deg);
    opacity: 0;
  }
  51% {
    animation-timing-function: cubic-bezier(0.1983,0.3529,0.5263,0.6945);
    transform: translate(467.48px,0px) rotate(0deg) scale(1,1) skewX(0deg) skewY(0deg);
    opacity: 0;
  }
  80.4% {
    animation-timing-function: cubic-bezier(0.2342,0.3708,0.5422,0.9065);
    transform: translate(99.84px,0px) rotate(0deg) scale(1,1) skewX(0deg) skewY(0deg);
    opacity: 1;
  }
  100% {
    transform: translate(0px,0px) rotate(0deg) scale(1,1) skewX(0deg) skewY(0deg);
    opacity: 1;
  }
}</style><style id="breath-a779c5f0-3e18-4cd5-82d3-2e62c4b6a03c" data-anikit="">@keyframes breath-a779c5f0-3e18-4cd5-82d3-2e62c4b6a03c
{
  0% {
    animation-timing-function: cubic-bezier(0.9647,0.2413,-0.0705,0.7911);
    transform: scale(0.8099999999999999);
  }
  51% {
    animation-timing-function: cubic-bezier(0.9226,0.2631,-0.0308,0.7628);
    transform: scale(1.12984);
  }
  100% {
    transform: scale(0.8099999999999999);
  }
}</style><style id="breath-a779c5f0-3e18-4cd5-82d3-2e62c4b6a03c" data-anikit="">@keyframes breath-a779c5f0-3e18-4cd5-82d3-2e62c4b6a03c
{
  0% {
    animation-timing-function: cubic-bezier(0.9647,0.2413,-0.0705,0.7911);
    transform: scale(0.8099999999999999);
  }
  51% {
    animation-timing-function: cubic-bezier(0.9226,0.2631,-0.0308,0.7628);
    transform: scale(1.12984);
  }
  100% {
    transform: scale(0.8099999999999999);
  }
}</style><style id="breath-a779c5f0-3e18-4cd5-82d3-2e62c4b6a03c" data-anikit="">@keyframes breath-a779c5f0-3e18-4cd5-82d3-2e62c4b6a03c
{
  0% {
    animation-timing-function: cubic-bezier(0.9647,0.2413,-0.0705,0.7911);
    transform: scale(0.8099999999999999);
  }
  51% {
    animation-timing-function: cubic-bezier(0.9226,0.2631,-0.0308,0.7628);
    transform: scale(1.12984);
  }
  100% {
    transform: scale(0.8099999999999999);
  }
}</style><style id="breath-a779c5f0-3e18-4cd5-82d3-2e62c4b6a03c" data-anikit="">@keyframes breath-a779c5f0-3e18-4cd5-82d3-2e62c4b6a03c
{
  0% {
    animation-timing-function: cubic-bezier(0.9647,0.2413,-0.0705,0.7911);
    transform: scale(0.8099999999999999);
  }
  51% {
    animation-timing-function: cubic-bezier(0.9226,0.2631,-0.0308,0.7628);
    transform: scale(1.12984);
  }
  100% {
    transform: scale(0.8099999999999999);
  }
}</style><style id="breath-a779c5f0-3e18-4cd5-82d3-2e62c4b6a03c" data-anikit="">@keyframes breath-a779c5f0-3e18-4cd5-82d3-2e62c4b6a03c
{
  0% {
    animation-timing-function: cubic-bezier(0.9647,0.2413,-0.0705,0.7911);
    transform: scale(0.8099999999999999);
  }
  51% {
    animation-timing-function: cubic-bezier(0.9226,0.2631,-0.0308,0.7628);
    transform: scale(1.12984);
  }
  100% {
    transform: scale(0.8099999999999999);
  }
}</style><style id="slide-rtl-8a93d583-acb2-45c9-bf04-56243408be54" data-anikit="">@keyframes slide-rtl-8a93d583-acb2-45c9-bf04-56243408be54
{
  0% {
    animation-timing-function: cubic-bezier(0.4652,0.1051,0.774,0.6426);
    transform: translate(0px,0px) rotate(0deg) scale(1,1) skewX(0deg) skewY(0deg);
    opacity: 1;
  }
  22.5% {
    animation-timing-function: cubic-bezier(0.4142,0.3131,0.7623,0.6513);
    transform: translate(-124.28px,0px) rotate(0deg) scale(1,1) skewX(0deg) skewY(0deg);
    opacity: 1;
  }
  45% {
    animation-timing-function: cubic-bezier(0.3615,0.331,0.9646,1.3461);
    transform: translate(-384.28px,0px) rotate(0deg) scale(1,1) skewX(0deg) skewY(0deg);
    opacity: 1;
  }
  47.5% {
    animation-timing-function: cubic-bezier(0.7006,0.3332,0.6667,0.6667);
    transform: translate(-430.56px,0px) rotate(0deg) scale(1,1) skewX(0deg) skewY(0deg);
    opacity: 0;
  }
  50% {
    animation-timing-function: cubic-bezier(0.1604,0.3176,-0.0218,0.6965);
    transform: translate(520px,0px) rotate(0deg) scale(1,1) skewX(0deg) skewY(0deg);
    opacity: 0;
  }
  51% {
    animation-timing-function: cubic-bezier(0.1983,0.3529,0.5263,0.6945);
    transform: translate(467.48px,0px) rotate(0deg) scale(1,1) skewX(0deg) skewY(0deg);
    opacity: 0;
  }
  80.4% {
    animation-timing-function: cubic-bezier(0.2342,0.3708,0.5422,0.9065);
    transform: translate(99.84px,0px) rotate(0deg) scale(1,1) skewX(0deg) skewY(0deg);
    opacity: 1;
  }
  100% {
    transform: translate(0px,0px) rotate(0deg) scale(1,1) skewX(0deg) skewY(0deg);
    opacity: 1;
  }
}</style><style id="slide-rtl-8a93d583-acb2-45c9-bf04-56243408be54" data-anikit="">@keyframes slide-rtl-8a93d583-acb2-45c9-bf04-56243408be54
{
  0% {
    animation-timing-function: cubic-bezier(0.4652,0.1051,0.774,0.6426);
    transform: translate(0px,0px) rotate(0deg) scale(1,1) skewX(0deg) skewY(0deg);
    opacity: 1;
  }
  22.5% {
    animation-timing-function: cubic-bezier(0.4142,0.3131,0.7623,0.6513);
    transform: translate(-124.28px,0px) rotate(0deg) scale(1,1) skewX(0deg) skewY(0deg);
    opacity: 1;
  }
  45% {
    animation-timing-function: cubic-bezier(0.3615,0.331,0.9646,1.3461);
    transform: translate(-384.28px,0px) rotate(0deg) scale(1,1) skewX(0deg) skewY(0deg);
    opacity: 1;
  }
  47.5% {
    animation-timing-function: cubic-bezier(0.7006,0.3332,0.6667,0.6667);
    transform: translate(-430.56px,0px) rotate(0deg) scale(1,1) skewX(0deg) skewY(0deg);
    opacity: 0;
  }
  50% {
    animation-timing-function: cubic-bezier(0.1604,0.3176,-0.0218,0.6965);
    transform: translate(520px,0px) rotate(0deg) scale(1,1) skewX(0deg) skewY(0deg);
    opacity: 0;
  }
  51% {
    animation-timing-function: cubic-bezier(0.1983,0.3529,0.5263,0.6945);
    transform: translate(467.48px,0px) rotate(0deg) scale(1,1) skewX(0deg) skewY(0deg);
    opacity: 0;
  }
  80.4% {
    animation-timing-function: cubic-bezier(0.2342,0.3708,0.5422,0.9065);
    transform: translate(99.84px,0px) rotate(0deg) scale(1,1) skewX(0deg) skewY(0deg);
    opacity: 1;
  }
  100% {
    transform: translate(0px,0px) rotate(0deg) scale(1,1) skewX(0deg) skewY(0deg);
    opacity: 1;
  }
}</style></svg>
